<svg width="72" height="17" viewBox="0 0 72 17" fill="none" xmlns="http://www.w3.org/2000/svg">
<path d="M12.3242 10.8857V11.5205C11.2305 12.738 10.2246 13.7406 9.30664 14.5283C8.39518 15.3226 7.50326 15.9313 6.63086 16.3545C5.75846 16.7842 4.91536 16.999 4.10156 16.999C3.39844 16.999 2.79297 16.859 2.28516 16.5791C1.78385 16.2992 1.40299 15.889 1.14258 15.3486C0.888672 14.8148 0.761719 14.18 0.761719 13.4443C0.761719 12.8649 0.852865 12.2529 1.03516 11.6084C1.22396 10.9574 1.49414 10.3031 1.8457 9.64551C2.19727 8.98145 2.62695 8.29785 3.13477 7.59473C3.64909 6.8916 4.2513 6.15267 4.94141 5.37793C5.65755 4.57715 6.36393 3.88704 7.06055 3.30762C7.75716 2.72168 8.38867 2.2627 8.95508 1.93066C9.52148 1.59863 10.0456 1.35124 10.5273 1.18848C11.0156 1.02572 11.4193 0.944336 11.7383 0.944336C12.0638 0.944336 12.3405 1.02246 12.5684 1.17871C12.7962 1.33496 12.972 1.56283 13.0957 1.8623C13.2194 2.16178 13.2812 2.50684 13.2812 2.89746C13.2812 3.63314 13.0306 4.45345 12.5293 5.3584C12.028 6.25684 11.403 7.12598 10.6543 7.96582C9.9056 8.80566 9.18945 9.49251 8.50586 10.0264C7.82878 10.5537 7.34049 10.8174 7.04102 10.8174C6.83919 10.8174 6.65039 10.7393 6.47461 10.583C6.30534 10.4202 6.2207 10.238 6.2207 10.0361C6.2207 9.66504 6.41602 9.21582 6.80664 8.68848C7.20378 8.16113 7.63346 7.67936 8.0957 7.24316C8.56445 6.80046 8.8444 6.5791 8.93555 6.5791C8.98112 6.5791 9.00391 6.59863 9.00391 6.6377C9.00391 6.69629 8.9681 6.7972 8.89648 6.94043C8.83138 7.08366 8.79883 7.17155 8.79883 7.2041C8.79883 7.25618 8.81836 7.28223 8.85742 7.28223C8.9681 7.28223 9.28711 6.986 9.81445 6.39355C10.3418 5.80111 10.8236 5.15007 11.2598 4.44043C11.7025 3.72428 11.9238 3.13835 11.9238 2.68262C11.9238 2.49382 11.8815 2.35059 11.7969 2.25293C11.7188 2.14876 11.5983 2.09668 11.4355 2.09668C10.9798 2.09668 10.2865 2.46777 9.35547 3.20996C8.43099 3.94564 7.48047 4.88639 6.50391 6.03223C5.53385 7.17155 4.72331 8.34993 4.07227 9.56738C3.42122 10.7848 3.0957 11.8558 3.0957 12.7803C3.0957 13.3141 3.17383 13.7601 3.33008 14.1182C3.49284 14.4762 3.72721 14.7529 4.0332 14.9482C4.3457 15.1436 4.72005 15.2412 5.15625 15.2412C6.10026 15.2412 7.17122 14.8734 8.36914 14.1377C9.56706 13.402 10.8854 12.318 12.3242 10.8857ZM33.668 13.1025L29.9863 11.3057C29.0488 12.5882 28.5247 13.4346 28.4141 13.8447C28.3359 14.1377 28.1602 14.3818 27.8867 14.5771C27.6198 14.779 27.4277 14.8799 27.3105 14.8799C26.9785 14.8799 26.8125 14.7529 26.8125 14.499C26.8125 14.3558 27.0078 13.9456 27.3984 13.2686C27.7956 12.585 28.3392 11.7809 29.0293 10.8564C28.6452 10.7002 28.4076 10.596 28.3164 10.5439C28.2253 10.4919 28.1895 10.3942 28.209 10.251C28.2285 10.1012 28.3424 9.87012 28.5508 9.55762C28.7331 9.28418 28.8698 9.10189 28.9609 9.01074C29.0521 8.91309 29.1595 8.83822 29.2832 8.78613C29.4069 8.72754 29.5371 8.68848 29.6738 8.66895C29.8105 8.64941 30.1947 8.60059 30.8262 8.52246C31.3405 7.82585 31.8971 7.07389 32.4961 6.2666C33.1016 5.45931 33.5736 4.83105 33.9121 4.38184C32.89 4.51855 32.1771 4.63249 31.7734 4.72363C31.3438 4.80827 30.9824 4.87988 30.6895 4.93848C30.403 4.99056 30.2012 5.03939 30.084 5.08496C29.9668 5.12402 29.9082 5.18262 29.9082 5.26074C29.9082 5.33236 29.9798 5.38118 30.123 5.40723C30.2663 5.43327 30.4453 5.44629 30.6602 5.44629C30.8815 5.44629 31.0508 5.45605 31.168 5.47559C31.2917 5.48861 31.3535 5.52441 31.3535 5.58301C31.3535 5.64811 31.2721 5.68717 31.1094 5.7002C30.9531 5.70671 30.5072 5.72624 29.7715 5.75879C29.3548 5.77181 29.0033 5.78483 28.7168 5.79785C28.4368 5.81087 28.2415 5.81738 28.1309 5.81738C27.9811 5.81738 27.8639 5.77181 27.7793 5.68066C27.6947 5.58952 27.6523 5.46908 27.6523 5.31934C27.6523 5.20866 27.7142 5.00358 27.8379 4.7041C27.9616 4.40462 28.1374 4.10189 28.3652 3.7959C28.5931 3.48991 28.8535 3.25228 29.1465 3.08301C29.4785 2.88118 29.9928 2.67936 30.6895 2.47754C31.3926 2.26921 32.1706 2.10319 33.0234 1.97949C33.8828 1.84928 34.7324 1.78418 35.5723 1.78418C36.0801 1.78418 36.5749 1.81348 37.0566 1.87207C37.5449 1.93066 37.9844 2.00228 38.375 2.08691C38.7721 2.17155 39.0846 2.25618 39.3125 2.34082C39.9049 2.53613 40.3574 2.83236 40.6699 3.22949C40.9889 3.62663 41.1484 4.06283 41.1484 4.53809C41.1484 5.00033 41.0671 5.4528 40.9043 5.89551C40.748 6.33171 40.5039 6.73861 40.1719 7.11621C39.8464 7.4873 39.4525 7.79004 38.9902 8.02441C38.6126 8.21973 38.0397 8.41829 37.2715 8.62012C36.5033 8.82194 35.5755 9.00098 34.4883 9.15723C33.401 9.31348 32.1868 9.42741 30.8457 9.49902C31.8483 9.85059 32.7826 10.2054 33.6484 10.5635C34.5208 10.915 35.2533 11.2308 35.8457 11.5107C36.4447 11.7842 36.9134 12.0088 37.252 12.1846C37.7272 12.432 38.0365 12.611 38.1797 12.7217C38.3229 12.8324 38.4173 12.9756 38.4629 13.1514C38.5085 13.3271 38.5312 13.6169 38.5312 14.0205C38.5312 14.4762 38.502 14.8115 38.4434 15.0264C38.3913 15.2477 38.2741 15.3584 38.0918 15.3584C38.0332 15.3584 37.877 15.2933 37.623 15.1631C37.3757 15.0394 37.0306 14.8538 36.5879 14.6064C36.1452 14.3656 35.7415 14.1507 35.377 13.9619C35.0189 13.7666 34.4492 13.4801 33.668 13.1025ZM34.5273 4.28418C34.5339 4.32975 34.5371 4.37207 34.5371 4.41113C34.5436 4.4502 34.5469 4.50553 34.5469 4.57715C34.5469 4.75944 34.4883 4.97103 34.3711 5.21191C34.2604 5.44629 34.1139 5.69043 33.9316 5.94434C33.7559 6.19173 33.4889 6.5498 33.1309 7.01855C32.7793 7.48079 32.4538 7.90723 32.1543 8.29785C33.5215 8.03743 34.6868 7.78678 35.6504 7.5459C36.6204 7.30501 37.418 7.06413 38.043 6.82324C38.668 6.57585 39.1367 6.31868 39.4492 6.05176C39.7682 5.77832 39.9277 5.49512 39.9277 5.20215C39.9277 4.87663 39.5957 4.62272 38.9316 4.44043C38.2741 4.25163 37.4668 4.15723 36.5098 4.15723C36.3145 4.15723 36.1061 4.16374 35.8848 4.17676C35.6699 4.18327 35.4095 4.2028 35.1035 4.23535C34.804 4.26139 34.612 4.27767 34.5273 4.28418ZM70.0996 10.8857V11.5596C69.4811 12.139 68.9538 12.6077 68.5176 12.9658C68.0879 13.3174 67.6582 13.6364 67.2285 13.9229C66.7988 14.2028 66.4408 14.4014 66.1543 14.5186C65.8743 14.6423 65.6335 14.7041 65.4316 14.7041C64.9499 14.7041 64.556 14.5251 64.25 14.167C63.944 13.8089 63.791 13.3467 63.791 12.7803C63.791 12.1292 63.9212 11.4847 64.1816 10.8467C64.4486 10.2087 64.8262 9.55111 65.3145 8.87402C65.8027 8.19043 66.4147 7.42546 67.1504 6.5791C67.6973 5.9541 67.9707 5.60254 67.9707 5.52441C67.9707 5.47884 67.9544 5.43978 67.9219 5.40723C67.8893 5.37467 67.8535 5.3584 67.8145 5.3584C67.6908 5.3584 67.3099 5.63184 66.6719 6.17871C66.0339 6.72559 65.2135 7.52962 64.2109 8.59082C63.2148 9.65202 62.1374 10.915 60.9785 12.3799C60.9134 12.458 60.7051 12.7249 60.3535 13.1807C60.0085 13.6299 59.7643 13.9229 59.6211 14.0596C59.4779 14.1963 59.3542 14.2646 59.25 14.2646C59.0677 14.2646 58.9082 14.0824 58.7715 13.7178C58.6413 13.3467 58.5762 12.9528 58.5762 12.5361C58.5762 12.2822 58.6576 12.0088 58.8203 11.7158C58.9896 11.4229 59.3509 10.8988 59.9043 10.1436C60.4642 9.38184 60.9264 8.74056 61.291 8.21973C61.6556 7.69889 62.056 7.06738 62.4922 6.3252C62.7982 5.81087 63.0228 5.40072 63.166 5.09473C63.3158 4.78874 63.3906 4.51855 63.3906 4.28418C63.3906 4.08236 63.332 3.98145 63.2148 3.98145C62.9674 3.98145 62.502 4.31348 61.8184 4.97754C61.1348 5.63509 60.2884 6.61491 59.2793 7.91699C58.2767 9.21908 57.2285 10.7262 56.1348 12.4385C55.7767 13.0244 55.5228 13.4183 55.373 13.6201C55.2233 13.8219 55.0573 13.9229 54.875 13.9229C54.6471 13.9229 54.4323 13.682 54.2305 13.2002C54.0352 12.7119 53.9375 12.318 53.9375 12.0186C53.9375 11.9209 53.9766 11.8135 54.0547 11.6963C54.9141 10.5505 55.6204 9.57715 56.1738 8.77637C56.7272 7.97559 57.2188 7.21712 57.6484 6.50098C58.0781 5.77832 58.3906 5.18587 58.5859 4.72363C58.7812 4.25488 58.8789 3.88704 58.8789 3.62012C58.8789 3.34017 58.752 3.2002 58.498 3.2002C58.2897 3.2002 57.9349 3.33366 57.4336 3.60059C56.9323 3.86751 56.2975 4.2321 55.5293 4.69434C54.7676 5.15658 54.1556 5.51139 53.6934 5.75879C53.2311 5.99967 52.8861 6.12012 52.6582 6.12012C52.4434 6.12012 52.3359 5.99967 52.3359 5.75879C52.3359 5.62207 52.3815 5.30957 52.4727 4.82129C52.5638 4.3265 52.6582 3.97819 52.7559 3.77637C52.8926 3.51595 53.2409 3.1709 53.8008 2.74121C54.3672 2.31152 54.6797 2.09668 54.7383 2.09668C54.7904 2.09668 54.8164 2.11947 54.8164 2.16504C54.8164 2.19108 54.7904 2.23014 54.7383 2.28223C54.4714 2.49707 54.2728 2.67285 54.1426 2.80957C54.0124 2.94629 53.931 3.09603 53.8984 3.25879C55.0898 2.54264 56.1543 1.99902 57.0918 1.62793C58.0358 1.25033 58.6901 1.06152 59.0547 1.06152C59.237 1.06152 59.4095 1.18522 59.5723 1.43262C59.735 1.6735 59.8717 1.95671 59.9824 2.28223C60.0996 2.60124 60.1582 2.80632 60.1582 2.89746C60.1582 3.22949 60.0736 3.62337 59.9043 4.0791C59.735 4.52832 59.5039 5.05241 59.2109 5.65137C58.9245 6.25033 58.5664 6.99902 58.1367 7.89746C58.4753 7.46126 58.7975 7.05762 59.1035 6.68652C59.4095 6.31543 59.7122 5.9541 60.0117 5.60254C60.3177 5.25098 60.627 4.89616 60.9395 4.53809C61.3626 4.0498 61.8379 3.58431 62.3652 3.1416C62.8926 2.69238 63.3841 2.3278 63.8398 2.04785C64.3021 1.76139 64.6146 1.61816 64.7773 1.61816C65.0052 1.61816 65.207 1.74512 65.3828 1.99902C65.5651 2.24642 65.6562 2.51335 65.6562 2.7998C65.6562 2.98861 65.5326 3.34993 65.2852 3.88379C65.0378 4.41764 64.6764 5.10124 64.2012 5.93457C63.7259 6.7679 63.0977 7.84212 62.3164 9.15723C63.0586 8.36947 63.8301 7.55892 64.6309 6.72559C65.4316 5.89225 66.0273 5.28353 66.418 4.89941C66.8086 4.5153 67.1341 4.22233 67.3945 4.02051C67.7526 3.74707 68.1107 3.4541 68.4688 3.1416C68.8333 2.82259 69.1198 2.57194 69.3281 2.38965C69.5365 2.20736 69.722 2.06738 69.8848 1.96973C70.0475 1.87207 70.1973 1.82324 70.334 1.82324C70.5033 1.82324 70.7148 2.01855 70.9688 2.40918C71.2292 2.7998 71.3594 3.05046 71.3594 3.16113C71.3594 3.29785 71.2812 3.46061 71.125 3.64941C70.9753 3.83822 70.6595 4.18978 70.1777 4.7041C69.2923 5.65462 68.5241 6.61491 67.873 7.58496C67.222 8.5485 66.7272 9.43066 66.3887 10.2314C66.0566 11.0257 65.8906 11.654 65.8906 12.1162C65.8906 12.4027 65.9427 12.611 66.0469 12.7412C66.1576 12.8714 66.3268 12.9365 66.5547 12.9365C66.763 12.9365 66.9551 12.8975 67.1309 12.8193C67.3132 12.7412 67.5117 12.6305 67.7266 12.4873C67.9479 12.3441 68.1562 12.2074 68.3516 12.0771C68.625 11.9144 68.8919 11.7419 69.1523 11.5596C69.4193 11.3708 69.6243 11.2243 69.7676 11.1201C69.9173 11.0094 70.028 10.9313 70.0996 10.8857Z" fill="#477AAA"/>
</svg>
