<svg width="76" height="9" viewBox="0 0 76 9" fill="none" xmlns="http://www.w3.org/2000/svg">
<path d="M4.113 6.613C3.933 6.757 3.687 6.88 3.375 6.982C3.069 7.078 2.742 7.126 2.394 7.126C1.668 7.126 1.137 6.916 0.801 6.496C0.465 6.07 0.297 5.488 0.297 4.75C0.297 3.958 0.486 3.364 0.864 2.968C1.242 2.572 1.773 2.374 2.457 2.374C2.685 2.374 2.907 2.404 3.123 2.464C3.339 2.524 3.531 2.623 3.699 2.761C3.867 2.899 4.002 3.085 4.104 3.319C4.206 3.553 4.257 3.844 4.257 4.192C4.257 4.318 4.248 4.453 4.23 4.597C4.218 4.741 4.197 4.891 4.167 5.047H1.467C1.485 5.425 1.581 5.71 1.755 5.902C1.935 6.094 2.223 6.19 2.619 6.19C2.865 6.19 3.084 6.154 3.276 6.082C3.474 6.004 3.624 5.926 3.726 5.848L4.113 6.613ZM2.439 3.31C2.133 3.31 1.905 3.403 1.755 3.589C1.611 3.769 1.524 4.012 1.494 4.318H3.168C3.192 3.994 3.141 3.745 3.015 3.571C2.895 3.397 2.703 3.31 2.439 3.31ZM6.28931 5.488C6.28931 5.698 6.31631 5.851 6.37031 5.947C6.42431 6.043 6.51131 6.091 6.63131 6.091C6.70331 6.091 6.77231 6.085 6.83831 6.073C6.91031 6.061 6.99731 6.034 7.09931 5.992L7.22531 6.91C7.12931 6.958 6.98231 7.006 6.78431 7.054C6.58631 7.102 6.38231 7.126 6.17231 7.126C5.83031 7.126 5.56931 7.048 5.38931 6.892C5.20931 6.73 5.11931 6.466 5.11931 6.1V0.7H6.28931V5.488ZM11.3288 6.613C11.1488 6.757 10.9028 6.88 10.5908 6.982C10.2848 7.078 9.95782 7.126 9.60982 7.126C8.88382 7.126 8.35282 6.916 8.01682 6.496C7.68082 6.07 7.51282 5.488 7.51282 4.75C7.51282 3.958 7.70182 3.364 8.07982 2.968C8.45782 2.572 8.98882 2.374 9.67282 2.374C9.90082 2.374 10.1228 2.404 10.3388 2.464C10.5548 2.524 10.7468 2.623 10.9148 2.761C11.0828 2.899 11.2178 3.085 11.3198 3.319C11.4218 3.553 11.4728 3.844 11.4728 4.192C11.4728 4.318 11.4638 4.453 11.4458 4.597C11.4338 4.741 11.4128 4.891 11.3828 5.047H8.68282C8.70082 5.425 8.79682 5.71 8.97082 5.902C9.15082 6.094 9.43882 6.19 9.83482 6.19C10.0808 6.19 10.2998 6.154 10.4918 6.082C10.6898 6.004 10.8398 5.926 10.9418 5.848L11.3288 6.613ZM9.65482 3.31C9.34882 3.31 9.12082 3.403 8.97082 3.589C8.82682 3.769 8.73982 4.012 8.70982 4.318H10.3838C10.4078 3.994 10.3568 3.745 10.2308 3.571C10.1108 3.397 9.91882 3.31 9.65482 3.31ZM13.7331 4.858L13.8861 5.551H13.9311L14.0571 4.84L14.8221 2.5H16.0821L14.2011 7.045H13.4901L11.5371 2.5H12.8961L13.7331 4.858ZM16.4381 2.761C16.6781 2.653 16.9631 2.569 17.2931 2.509C17.6231 2.443 17.9681 2.41 18.3281 2.41C18.6401 2.41 18.9011 2.449 19.1111 2.527C19.3211 2.599 19.4861 2.704 19.6061 2.842C19.7321 2.98 19.8191 3.145 19.8671 3.337C19.9211 3.529 19.9481 3.745 19.9481 3.985C19.9481 4.249 19.9391 4.516 19.9211 4.786C19.9031 5.05 19.8911 5.311 19.8851 5.569C19.8851 5.827 19.8941 6.079 19.9121 6.325C19.9301 6.565 19.9751 6.793 20.0471 7.009H19.0931L18.9041 6.388H18.8591C18.7391 6.574 18.5711 6.736 18.3551 6.874C18.1451 7.006 17.8721 7.072 17.5361 7.072C17.3261 7.072 17.1371 7.042 16.9691 6.982C16.8011 6.916 16.6571 6.826 16.5371 6.712C16.4171 6.592 16.3241 6.454 16.2581 6.298C16.1921 6.136 16.1591 5.956 16.1591 5.758C16.1591 5.482 16.2191 5.251 16.3391 5.065C16.4651 4.873 16.6421 4.72 16.8701 4.606C17.1041 4.486 17.3801 4.405 17.6981 4.363C18.0221 4.315 18.3821 4.3 18.7781 4.318C18.8201 3.982 18.7961 3.742 18.7061 3.598C18.6161 3.448 18.4151 3.373 18.1031 3.373C17.8691 3.373 17.6201 3.397 17.3561 3.445C17.0981 3.493 16.8851 3.556 16.7171 3.634L16.4381 2.761ZM17.9231 6.109C18.1571 6.109 18.3431 6.058 18.4811 5.956C18.6191 5.848 18.7211 5.734 18.7871 5.614V5.029C18.6011 5.011 18.4211 5.008 18.2471 5.02C18.0791 5.032 17.9291 5.059 17.7971 5.101C17.6651 5.143 17.5601 5.203 17.4821 5.281C17.4041 5.359 17.3651 5.458 17.3651 5.578C17.3651 5.746 17.4131 5.878 17.5091 5.974C17.6111 6.064 17.7491 6.109 17.9231 6.109ZM20.462 2.5H21.083V1.654L22.253 1.321V2.5H23.351V3.49H22.253V5.218C22.253 5.53 22.283 5.755 22.343 5.893C22.409 6.025 22.529 6.091 22.703 6.091C22.823 6.091 22.925 6.079 23.009 6.055C23.099 6.031 23.198 5.995 23.306 5.947L23.513 6.847C23.351 6.925 23.162 6.991 22.946 7.045C22.73 7.099 22.511 7.126 22.289 7.126C21.875 7.126 21.569 7.021 21.371 6.811C21.179 6.595 21.083 6.244 21.083 5.758V3.49H20.462V2.5ZM27.6237 6.613C27.4437 6.757 27.1977 6.88 26.8857 6.982C26.5797 7.078 26.2527 7.126 25.9047 7.126C25.1787 7.126 24.6477 6.916 24.3117 6.496C23.9757 6.07 23.8077 5.488 23.8077 4.75C23.8077 3.958 23.9967 3.364 24.3747 2.968C24.7527 2.572 25.2837 2.374 25.9677 2.374C26.1957 2.374 26.4177 2.404 26.6337 2.464C26.8497 2.524 27.0417 2.623 27.2097 2.761C27.3777 2.899 27.5127 3.085 27.6147 3.319C27.7167 3.553 27.7677 3.844 27.7677 4.192C27.7677 4.318 27.7587 4.453 27.7407 4.597C27.7287 4.741 27.7077 4.891 27.6777 5.047H24.9777C24.9957 5.425 25.0917 5.71 25.2657 5.902C25.4457 6.094 25.7337 6.19 26.1297 6.19C26.3757 6.19 26.5947 6.154 26.7867 6.082C26.9847 6.004 27.1347 5.926 27.2367 5.848L27.6237 6.613ZM25.9497 3.31C25.6437 3.31 25.4157 3.403 25.2657 3.589C25.1217 3.769 25.0347 4.012 25.0047 4.318H26.6787C26.7027 3.994 26.6517 3.745 26.5257 3.571C26.4057 3.397 26.2137 3.31 25.9497 3.31ZM30.6544 4.75C30.6544 3.988 30.8404 3.403 31.2124 2.995C31.5844 2.581 32.1064 2.374 32.7784 2.374C33.1384 2.374 33.4504 2.431 33.7144 2.545C33.9784 2.659 34.1974 2.821 34.3714 3.031C34.5454 3.235 34.6744 3.484 34.7584 3.778C34.8484 4.072 34.8934 4.396 34.8934 4.75C34.8934 5.512 34.7074 6.1 34.3354 6.514C33.9694 6.922 33.4504 7.126 32.7784 7.126C32.4184 7.126 32.1064 7.069 31.8424 6.955C31.5784 6.841 31.3564 6.682 31.1764 6.478C31.0024 6.268 30.8704 6.016 30.7804 5.722C30.6964 5.428 30.6544 5.104 30.6544 4.75ZM31.8604 4.75C31.8604 4.948 31.8784 5.131 31.9144 5.299C31.9504 5.467 32.0044 5.614 32.0764 5.74C32.1484 5.866 32.2414 5.965 32.3554 6.037C32.4754 6.103 32.6164 6.136 32.7784 6.136C33.0844 6.136 33.3124 6.025 33.4624 5.803C33.6124 5.581 33.6874 5.23 33.6874 4.75C33.6874 4.336 33.6184 4.003 33.4804 3.751C33.3424 3.493 33.1084 3.364 32.7784 3.364C32.4904 3.364 32.2654 3.472 32.1034 3.688C31.9414 3.904 31.8604 4.258 31.8604 4.75ZM35.7044 2.5H36.5594L36.6944 3.04H36.7304C36.8864 2.812 37.0694 2.644 37.2794 2.536C37.4954 2.428 37.7564 2.374 38.0624 2.374C38.6264 2.374 39.0494 2.554 39.3314 2.914C39.6134 3.268 39.7544 3.841 39.7544 4.633C39.7544 5.017 39.7094 5.365 39.6194 5.677C39.5294 5.983 39.3944 6.244 39.2144 6.46C39.0404 6.676 38.8244 6.841 38.5664 6.955C38.3144 7.069 38.0234 7.126 37.6934 7.126C37.5074 7.126 37.3544 7.111 37.2344 7.081C37.1144 7.057 36.9944 7.015 36.8744 6.955V8.8H35.7044V2.5ZM37.7114 3.364C37.4834 3.364 37.3034 3.421 37.1714 3.535C37.0454 3.649 36.9464 3.82 36.8744 4.048V5.92C36.9584 5.986 37.0484 6.04 37.1444 6.082C37.2464 6.118 37.3784 6.136 37.5404 6.136C37.8764 6.136 38.1284 6.019 38.2964 5.785C38.4644 5.545 38.5484 5.152 38.5484 4.606C38.5484 4.21 38.4824 3.904 38.3504 3.688C38.2184 3.472 38.0054 3.364 37.7114 3.364ZM40.5648 2.5H41.4198L41.5548 3.04H41.5908C41.7468 2.812 41.9298 2.644 42.1398 2.536C42.3558 2.428 42.6168 2.374 42.9228 2.374C43.4868 2.374 43.9098 2.554 44.1918 2.914C44.4738 3.268 44.6148 3.841 44.6148 4.633C44.6148 5.017 44.5698 5.365 44.4798 5.677C44.3898 5.983 44.2548 6.244 44.0748 6.46C43.9008 6.676 43.6848 6.841 43.4268 6.955C43.1748 7.069 42.8838 7.126 42.5538 7.126C42.3678 7.126 42.2148 7.111 42.0948 7.081C41.9748 7.057 41.8548 7.015 41.7348 6.955V8.8H40.5648V2.5ZM42.5718 3.364C42.3438 3.364 42.1638 3.421 42.0318 3.535C41.9058 3.649 41.8068 3.82 41.7348 4.048V5.92C41.8188 5.986 41.9088 6.04 42.0048 6.082C42.1068 6.118 42.2388 6.136 42.4008 6.136C42.7368 6.136 42.9888 6.019 43.1568 5.785C43.3248 5.545 43.4088 5.152 43.4088 4.606C43.4088 4.21 43.3428 3.904 43.2108 3.688C43.0788 3.472 42.8658 3.364 42.5718 3.364ZM45.2091 4.75C45.2091 3.988 45.3951 3.403 45.7671 2.995C46.1391 2.581 46.6611 2.374 47.3331 2.374C47.6931 2.374 48.0051 2.431 48.2691 2.545C48.5331 2.659 48.7521 2.821 48.9261 3.031C49.1001 3.235 49.2291 3.484 49.3131 3.778C49.4031 4.072 49.4481 4.396 49.4481 4.75C49.4481 5.512 49.2621 6.1 48.8901 6.514C48.5241 6.922 48.0051 7.126 47.3331 7.126C46.9731 7.126 46.6611 7.069 46.3971 6.955C46.1331 6.841 45.9111 6.682 45.7311 6.478C45.5571 6.268 45.4251 6.016 45.3351 5.722C45.2511 5.428 45.2091 5.104 45.2091 4.75ZM46.4151 4.75C46.4151 4.948 46.4331 5.131 46.4691 5.299C46.5051 5.467 46.5591 5.614 46.6311 5.74C46.7031 5.866 46.7961 5.965 46.9101 6.037C47.0301 6.103 47.1711 6.136 47.3331 6.136C47.6391 6.136 47.8671 6.025 48.0171 5.803C48.1671 5.581 48.2421 5.23 48.2421 4.75C48.2421 4.336 48.1731 4.003 48.0351 3.751C47.8971 3.493 47.6631 3.364 47.3331 3.364C47.0451 3.364 46.8201 3.472 46.6581 3.688C46.4961 3.904 46.4151 4.258 46.4151 4.75ZM52.7431 3.598C52.5571 3.532 52.3891 3.499 52.2391 3.499C52.0291 3.499 51.8521 3.556 51.7081 3.67C51.5701 3.778 51.4771 3.919 51.4291 4.093V7H50.2591V2.5H51.1681L51.3031 3.094H51.3391C51.4411 2.872 51.5791 2.701 51.7531 2.581C51.9271 2.461 52.1311 2.401 52.3651 2.401C52.5211 2.401 52.6981 2.434 52.8961 2.5L52.7431 3.598ZM53.2188 2.5H53.8398V1.654L55.0098 1.321V2.5H56.1078V3.49H55.0098V5.218C55.0098 5.53 55.0398 5.755 55.0998 5.893C55.1658 6.025 55.2858 6.091 55.4598 6.091C55.5798 6.091 55.6818 6.079 55.7658 6.055C55.8558 6.031 55.9548 5.995 56.0628 5.947L56.2698 6.847C56.1078 6.925 55.9188 6.991 55.7028 7.045C55.4868 7.099 55.2678 7.126 55.0458 7.126C54.6318 7.126 54.3258 7.021 54.1278 6.811C53.9358 6.595 53.8398 6.244 53.8398 5.758V3.49H53.2188V2.5ZM57.9495 2.5V5.056C57.9495 5.422 57.9915 5.686 58.0755 5.848C58.1655 6.01 58.3365 6.091 58.5885 6.091C58.8105 6.091 58.9935 6.025 59.1375 5.893C59.2875 5.761 59.3985 5.599 59.4705 5.407V2.5H60.6405V5.632C60.6405 5.878 60.6525 6.121 60.6765 6.361C60.7005 6.595 60.7365 6.808 60.7845 7H59.9025L59.6955 6.334H59.6595C59.5215 6.562 59.3295 6.751 59.0835 6.901C58.8375 7.051 58.5465 7.126 58.2105 7.126C57.9825 7.126 57.7785 7.096 57.5985 7.036C57.4185 6.976 57.2685 6.877 57.1485 6.739C57.0285 6.601 56.9355 6.415 56.8695 6.181C56.8095 5.947 56.7795 5.653 56.7795 5.299V2.5H57.9495ZM64.4213 7V4.444C64.4213 4.078 64.3673 3.814 64.2593 3.652C64.1573 3.49 63.9803 3.409 63.7283 3.409C63.5063 3.409 63.3173 3.475 63.1613 3.607C63.0113 3.733 62.9033 3.892 62.8373 4.084V7H61.6673V2.5H62.5943L62.7293 3.094H62.7653C62.9033 2.902 63.0863 2.734 63.3143 2.59C63.5423 2.446 63.8363 2.374 64.1963 2.374C64.4183 2.374 64.6163 2.404 64.7903 2.464C64.9643 2.524 65.1113 2.623 65.2313 2.761C65.3513 2.899 65.4413 3.088 65.5013 3.328C65.5613 3.562 65.5913 3.853 65.5913 4.201V7H64.4213ZM66.6706 2.5H67.8406V7H66.6706V2.5ZM66.4996 1.231C66.4996 1.057 66.5626 0.91 66.6886 0.789999C66.8206 0.664 67.0006 0.601 67.2286 0.601C67.4566 0.601 67.6396 0.664 67.7776 0.789999C67.9216 0.91 67.9936 1.057 67.9936 1.231C67.9936 1.405 67.9216 1.552 67.7776 1.672C67.6396 1.786 67.4566 1.843 67.2286 1.843C67.0006 1.843 66.8206 1.786 66.6886 1.672C66.5626 1.552 66.4996 1.405 66.4996 1.231ZM68.5206 2.5H69.1416V1.654L70.3116 1.321V2.5H71.4096V3.49H70.3116V5.218C70.3116 5.53 70.3416 5.755 70.4016 5.893C70.4676 6.025 70.5876 6.091 70.7616 6.091C70.8816 6.091 70.9836 6.079 71.0676 6.055C71.1576 6.031 71.2566 5.995 71.3646 5.947L71.5716 6.847C71.4096 6.925 71.2206 6.991 71.0046 7.045C70.7886 7.099 70.5696 7.126 70.3476 7.126C69.9336 7.126 69.6276 7.021 69.4296 6.811C69.2376 6.595 69.1416 6.244 69.1416 5.758V3.49H68.5206V2.5ZM73.5533 5.029L73.7153 5.731H73.7693L73.8863 5.02L74.5703 2.5H75.7763L74.4083 6.559C74.2943 6.895 74.1833 7.201 74.0753 7.477C73.9733 7.759 73.8593 8.002 73.7333 8.206C73.6073 8.41 73.4663 8.566 73.3103 8.674C73.1603 8.788 72.9803 8.845 72.7703 8.845C72.4583 8.845 72.2093 8.794 72.0233 8.692L72.2393 7.756C72.3293 7.792 72.4193 7.81 72.5093 7.81C72.6473 7.81 72.7793 7.75 72.9053 7.63C73.0373 7.516 73.1363 7.306 73.2023 7L71.3213 2.5H72.7253L73.5533 5.029Z" fill="#ED7D31"/>
</svg>
