<svg width="158" height="47" viewBox="0 0 158 47" fill="none" xmlns="http://www.w3.org/2000/svg">
<g filter="url(#filter0_d_780_3440)">
<rect x="-29.75" y="0.25" width="183.5" height="36.5" rx="6.75" fill="white" stroke="#477AAA" stroke-width="0.5"/>
<rect width="43" height="37" fill="#477AAA"/>
<path d="M61.113 29.613C60.933 29.757 60.687 29.88 60.375 29.982C60.069 30.078 59.742 30.126 59.394 30.126C58.668 30.126 58.137 29.916 57.801 29.496C57.465 29.07 57.297 28.488 57.297 27.75C57.297 26.958 57.486 26.364 57.864 25.968C58.242 25.572 58.773 25.374 59.457 25.374C59.685 25.374 59.907 25.404 60.123 25.464C60.339 25.524 60.531 25.623 60.699 25.761C60.867 25.899 61.002 26.085 61.104 26.319C61.206 26.553 61.257 26.844 61.257 27.192C61.257 27.318 61.248 27.453 61.23 27.597C61.218 27.741 61.197 27.891 61.167 28.047H58.467C58.485 28.425 58.581 28.71 58.755 28.902C58.935 29.094 59.223 29.19 59.619 29.19C59.865 29.19 60.084 29.154 60.276 29.082C60.474 29.004 60.624 28.926 60.726 28.848L61.113 29.613ZM59.439 26.31C59.133 26.31 58.905 26.403 58.755 26.589C58.611 26.769 58.524 27.012 58.494 27.318H60.168C60.192 26.994 60.141 26.745 60.015 26.571C59.895 26.397 59.703 26.31 59.439 26.31ZM63.2893 28.488C63.2893 28.698 63.3163 28.851 63.3703 28.947C63.4243 29.043 63.5113 29.091 63.6313 29.091C63.7033 29.091 63.7723 29.085 63.8383 29.073C63.9103 29.061 63.9973 29.034 64.0993 28.992L64.2253 29.91C64.1293 29.958 63.9823 30.006 63.7843 30.054C63.5863 30.102 63.3823 30.126 63.1723 30.126C62.8303 30.126 62.5693 30.048 62.3893 29.892C62.2093 29.73 62.1193 29.466 62.1193 29.1V23.7H63.2893V28.488ZM68.3288 29.613C68.1488 29.757 67.9028 29.88 67.5908 29.982C67.2848 30.078 66.9578 30.126 66.6098 30.126C65.8838 30.126 65.3528 29.916 65.0168 29.496C64.6808 29.07 64.5128 28.488 64.5128 27.75C64.5128 26.958 64.7018 26.364 65.0798 25.968C65.4578 25.572 65.9888 25.374 66.6728 25.374C66.9008 25.374 67.1228 25.404 67.3388 25.464C67.5548 25.524 67.7468 25.623 67.9148 25.761C68.0828 25.899 68.2178 26.085 68.3198 26.319C68.4218 26.553 68.4728 26.844 68.4728 27.192C68.4728 27.318 68.4638 27.453 68.4458 27.597C68.4338 27.741 68.4128 27.891 68.3828 28.047H65.6828C65.7008 28.425 65.7968 28.71 65.9708 28.902C66.1508 29.094 66.4388 29.19 66.8348 29.19C67.0808 29.19 67.2998 29.154 67.4918 29.082C67.6898 29.004 67.8398 28.926 67.9418 28.848L68.3288 29.613ZM66.6548 26.31C66.3488 26.31 66.1208 26.403 65.9708 26.589C65.8268 26.769 65.7398 27.012 65.7098 27.318H67.3838C67.4078 26.994 67.3568 26.745 67.2308 26.571C67.1108 26.397 66.9188 26.31 66.6548 26.31ZM70.7331 27.858L70.8861 28.551H70.9311L71.0571 27.84L71.8221 25.5H73.0821L71.2011 30.045H70.4901L68.5371 25.5H69.8961L70.7331 27.858ZM73.4381 25.761C73.6781 25.653 73.9631 25.569 74.2931 25.509C74.6231 25.443 74.9681 25.41 75.3281 25.41C75.6401 25.41 75.9011 25.449 76.1111 25.527C76.3211 25.599 76.4861 25.704 76.6061 25.842C76.7321 25.98 76.8191 26.145 76.8671 26.337C76.9211 26.529 76.9481 26.745 76.9481 26.985C76.9481 27.249 76.9391 27.516 76.9211 27.786C76.9031 28.05 76.8911 28.311 76.8851 28.569C76.8851 28.827 76.8941 29.079 76.9121 29.325C76.9301 29.565 76.9751 29.793 77.0471 30.009H76.0931L75.9041 29.388H75.8591C75.7391 29.574 75.5711 29.736 75.3551 29.874C75.1451 30.006 74.8721 30.072 74.5361 30.072C74.3261 30.072 74.1371 30.042 73.9691 29.982C73.8011 29.916 73.6571 29.826 73.5371 29.712C73.4171 29.592 73.3241 29.454 73.2581 29.298C73.1921 29.136 73.1591 28.956 73.1591 28.758C73.1591 28.482 73.2191 28.251 73.3391 28.065C73.4651 27.873 73.6421 27.72 73.8701 27.606C74.1041 27.486 74.3801 27.405 74.6981 27.363C75.0221 27.315 75.3821 27.3 75.7781 27.318C75.8201 26.982 75.7961 26.742 75.7061 26.598C75.6161 26.448 75.4151 26.373 75.1031 26.373C74.8691 26.373 74.6201 26.397 74.3561 26.445C74.0981 26.493 73.8851 26.556 73.7171 26.634L73.4381 25.761ZM74.9231 29.109C75.1571 29.109 75.3431 29.058 75.4811 28.956C75.6191 28.848 75.7211 28.734 75.7871 28.614V28.029C75.6011 28.011 75.4211 28.008 75.2471 28.02C75.0791 28.032 74.9291 28.059 74.7971 28.101C74.6651 28.143 74.5601 28.203 74.4821 28.281C74.4041 28.359 74.3651 28.458 74.3651 28.578C74.3651 28.746 74.4131 28.878 74.5091 28.974C74.6111 29.064 74.7491 29.109 74.9231 29.109ZM77.462 25.5H78.083V24.654L79.253 24.321V25.5H80.351V26.49H79.253V28.218C79.253 28.53 79.283 28.755 79.343 28.893C79.409 29.025 79.529 29.091 79.703 29.091C79.823 29.091 79.925 29.079 80.009 29.055C80.099 29.031 80.198 28.995 80.306 28.947L80.513 29.847C80.351 29.925 80.162 29.991 79.946 30.045C79.73 30.099 79.511 30.126 79.289 30.126C78.875 30.126 78.569 30.021 78.371 29.811C78.179 29.595 78.083 29.244 78.083 28.758V26.49H77.462V25.5ZM84.6237 29.613C84.4437 29.757 84.1977 29.88 83.8857 29.982C83.5797 30.078 83.2527 30.126 82.9047 30.126C82.1787 30.126 81.6477 29.916 81.3117 29.496C80.9757 29.07 80.8077 28.488 80.8077 27.75C80.8077 26.958 80.9967 26.364 81.3747 25.968C81.7527 25.572 82.2837 25.374 82.9677 25.374C83.1957 25.374 83.4177 25.404 83.6337 25.464C83.8497 25.524 84.0417 25.623 84.2097 25.761C84.3777 25.899 84.5127 26.085 84.6147 26.319C84.7167 26.553 84.7677 26.844 84.7677 27.192C84.7677 27.318 84.7587 27.453 84.7407 27.597C84.7287 27.741 84.7077 27.891 84.6777 28.047H81.9777C81.9957 28.425 82.0917 28.71 82.2657 28.902C82.4457 29.094 82.7337 29.19 83.1297 29.19C83.3757 29.19 83.5947 29.154 83.7867 29.082C83.9847 29.004 84.1347 28.926 84.2367 28.848L84.6237 29.613ZM82.9497 26.31C82.6437 26.31 82.4157 26.403 82.2657 26.589C82.1217 26.769 82.0347 27.012 82.0047 27.318H83.6787C83.7027 26.994 83.6517 26.745 83.5257 26.571C83.4057 26.397 83.2137 26.31 82.9497 26.31ZM87.6544 27.75C87.6544 26.988 87.8404 26.403 88.2124 25.995C88.5844 25.581 89.1064 25.374 89.7784 25.374C90.1384 25.374 90.4504 25.431 90.7144 25.545C90.9784 25.659 91.1974 25.821 91.3714 26.031C91.5454 26.235 91.6744 26.484 91.7584 26.778C91.8484 27.072 91.8934 27.396 91.8934 27.75C91.8934 28.512 91.7074 29.1 91.3354 29.514C90.9694 29.922 90.4504 30.126 89.7784 30.126C89.4184 30.126 89.1064 30.069 88.8424 29.955C88.5784 29.841 88.3564 29.682 88.1764 29.478C88.0024 29.268 87.8704 29.016 87.7804 28.722C87.6964 28.428 87.6544 28.104 87.6544 27.75ZM88.8604 27.75C88.8604 27.948 88.8784 28.131 88.9144 28.299C88.9504 28.467 89.0044 28.614 89.0764 28.74C89.1484 28.866 89.2414 28.965 89.3554 29.037C89.4754 29.103 89.6164 29.136 89.7784 29.136C90.0844 29.136 90.3124 29.025 90.4624 28.803C90.6124 28.581 90.6874 28.23 90.6874 27.75C90.6874 27.336 90.6184 27.003 90.4804 26.751C90.3424 26.493 90.1084 26.364 89.7784 26.364C89.4904 26.364 89.2654 26.472 89.1034 26.688C88.9414 26.904 88.8604 27.258 88.8604 27.75ZM92.7044 25.5H93.5594L93.6944 26.04H93.7304C93.8864 25.812 94.0694 25.644 94.2794 25.536C94.4954 25.428 94.7564 25.374 95.0624 25.374C95.6264 25.374 96.0494 25.554 96.3314 25.914C96.6134 26.268 96.7544 26.841 96.7544 27.633C96.7544 28.017 96.7094 28.365 96.6194 28.677C96.5294 28.983 96.3944 29.244 96.2144 29.46C96.0404 29.676 95.8244 29.841 95.5664 29.955C95.3144 30.069 95.0234 30.126 94.6934 30.126C94.5074 30.126 94.3544 30.111 94.2344 30.081C94.1144 30.057 93.9944 30.015 93.8744 29.955V31.8H92.7044V25.5ZM94.7114 26.364C94.4834 26.364 94.3034 26.421 94.1714 26.535C94.0454 26.649 93.9464 26.82 93.8744 27.048V28.92C93.9584 28.986 94.0484 29.04 94.1444 29.082C94.2464 29.118 94.3784 29.136 94.5404 29.136C94.8764 29.136 95.1284 29.019 95.2964 28.785C95.4644 28.545 95.5484 28.152 95.5484 27.606C95.5484 27.21 95.4824 26.904 95.3504 26.688C95.2184 26.472 95.0054 26.364 94.7114 26.364ZM97.5648 25.5H98.4198L98.5548 26.04H98.5908C98.7468 25.812 98.9298 25.644 99.1398 25.536C99.3558 25.428 99.6168 25.374 99.9228 25.374C100.487 25.374 100.91 25.554 101.192 25.914C101.474 26.268 101.615 26.841 101.615 27.633C101.615 28.017 101.57 28.365 101.48 28.677C101.39 28.983 101.255 29.244 101.075 29.46C100.901 29.676 100.685 29.841 100.427 29.955C100.175 30.069 99.8838 30.126 99.5538 30.126C99.3678 30.126 99.2148 30.111 99.0948 30.081C98.9748 30.057 98.8548 30.015 98.7348 29.955V31.8H97.5648V25.5ZM99.5718 26.364C99.3438 26.364 99.1638 26.421 99.0318 26.535C98.9058 26.649 98.8068 26.82 98.7348 27.048V28.92C98.8188 28.986 98.9088 29.04 99.0048 29.082C99.1068 29.118 99.2388 29.136 99.4008 29.136C99.7368 29.136 99.9888 29.019 100.157 28.785C100.325 28.545 100.409 28.152 100.409 27.606C100.409 27.21 100.343 26.904 100.211 26.688C100.079 26.472 99.8658 26.364 99.5718 26.364ZM102.209 27.75C102.209 26.988 102.395 26.403 102.767 25.995C103.139 25.581 103.661 25.374 104.333 25.374C104.693 25.374 105.005 25.431 105.269 25.545C105.533 25.659 105.752 25.821 105.926 26.031C106.1 26.235 106.229 26.484 106.313 26.778C106.403 27.072 106.448 27.396 106.448 27.75C106.448 28.512 106.262 29.1 105.89 29.514C105.524 29.922 105.005 30.126 104.333 30.126C103.973 30.126 103.661 30.069 103.397 29.955C103.133 29.841 102.911 29.682 102.731 29.478C102.557 29.268 102.425 29.016 102.335 28.722C102.251 28.428 102.209 28.104 102.209 27.75ZM103.415 27.75C103.415 27.948 103.433 28.131 103.469 28.299C103.505 28.467 103.559 28.614 103.631 28.74C103.703 28.866 103.796 28.965 103.91 29.037C104.03 29.103 104.171 29.136 104.333 29.136C104.639 29.136 104.867 29.025 105.017 28.803C105.167 28.581 105.242 28.23 105.242 27.75C105.242 27.336 105.173 27.003 105.035 26.751C104.897 26.493 104.663 26.364 104.333 26.364C104.045 26.364 103.82 26.472 103.658 26.688C103.496 26.904 103.415 27.258 103.415 27.75ZM109.743 26.598C109.557 26.532 109.389 26.499 109.239 26.499C109.029 26.499 108.852 26.556 108.708 26.67C108.57 26.778 108.477 26.919 108.429 27.093V30H107.259V25.5H108.168L108.303 26.094H108.339C108.441 25.872 108.579 25.701 108.753 25.581C108.927 25.461 109.131 25.401 109.365 25.401C109.521 25.401 109.698 25.434 109.896 25.5L109.743 26.598ZM110.219 25.5H110.84V24.654L112.01 24.321V25.5H113.108V26.49H112.01V28.218C112.01 28.53 112.04 28.755 112.1 28.893C112.166 29.025 112.286 29.091 112.46 29.091C112.58 29.091 112.682 29.079 112.766 29.055C112.856 29.031 112.955 28.995 113.063 28.947L113.27 29.847C113.108 29.925 112.919 29.991 112.703 30.045C112.487 30.099 112.268 30.126 112.046 30.126C111.632 30.126 111.326 30.021 111.128 29.811C110.936 29.595 110.84 29.244 110.84 28.758V26.49H110.219V25.5ZM114.95 25.5V28.056C114.95 28.422 114.992 28.686 115.076 28.848C115.166 29.01 115.337 29.091 115.589 29.091C115.811 29.091 115.994 29.025 116.138 28.893C116.288 28.761 116.399 28.599 116.471 28.407V25.5H117.641V28.632C117.641 28.878 117.653 29.121 117.677 29.361C117.701 29.595 117.737 29.808 117.785 30H116.903L116.696 29.334H116.66C116.522 29.562 116.33 29.751 116.084 29.901C115.838 30.051 115.547 30.126 115.211 30.126C114.983 30.126 114.779 30.096 114.599 30.036C114.419 29.976 114.269 29.877 114.149 29.739C114.029 29.601 113.936 29.415 113.87 29.181C113.81 28.947 113.78 28.653 113.78 28.299V25.5H114.95ZM121.421 30V27.444C121.421 27.078 121.367 26.814 121.259 26.652C121.157 26.49 120.98 26.409 120.728 26.409C120.506 26.409 120.317 26.475 120.161 26.607C120.011 26.733 119.903 26.892 119.837 27.084V30H118.667V25.5H119.594L119.729 26.094H119.765C119.903 25.902 120.086 25.734 120.314 25.59C120.542 25.446 120.836 25.374 121.196 25.374C121.418 25.374 121.616 25.404 121.79 25.464C121.964 25.524 122.111 25.623 122.231 25.761C122.351 25.899 122.441 26.088 122.501 26.328C122.561 26.562 122.591 26.853 122.591 27.201V30H121.421ZM123.671 25.5H124.841V30H123.671V25.5ZM123.5 24.231C123.5 24.057 123.563 23.91 123.689 23.79C123.821 23.664 124.001 23.601 124.229 23.601C124.457 23.601 124.64 23.664 124.778 23.79C124.922 23.91 124.994 24.057 124.994 24.231C124.994 24.405 124.922 24.552 124.778 24.672C124.64 24.786 124.457 24.843 124.229 24.843C124.001 24.843 123.821 24.786 123.689 24.672C123.563 24.552 123.5 24.405 123.5 24.231ZM125.521 25.5H126.142V24.654L127.312 24.321V25.5H128.41V26.49H127.312V28.218C127.312 28.53 127.342 28.755 127.402 28.893C127.468 29.025 127.588 29.091 127.762 29.091C127.882 29.091 127.984 29.079 128.068 29.055C128.158 29.031 128.257 28.995 128.365 28.947L128.572 29.847C128.41 29.925 128.221 29.991 128.005 30.045C127.789 30.099 127.57 30.126 127.348 30.126C126.934 30.126 126.628 30.021 126.43 29.811C126.238 29.595 126.142 29.244 126.142 28.758V26.49H125.521V25.5ZM130.553 28.029L130.715 28.731H130.769L130.886 28.02L131.57 25.5H132.776L131.408 29.559C131.294 29.895 131.183 30.201 131.075 30.477C130.973 30.759 130.859 31.002 130.733 31.206C130.607 31.41 130.466 31.566 130.31 31.674C130.16 31.788 129.98 31.845 129.77 31.845C129.458 31.845 129.209 31.794 129.023 31.692L129.239 30.756C129.329 30.792 129.419 30.81 129.509 30.81C129.647 30.81 129.779 30.75 129.905 30.63C130.037 30.516 130.136 30.306 130.202 30L128.321 25.5H129.725L130.553 28.029Z" fill="#ED7D31"/>
<path d="M71.3242 14.8857V15.5205C70.2305 16.738 69.2246 17.7406 68.3066 18.5283C67.3952 19.3226 66.5033 19.9313 65.6309 20.3545C64.7585 20.7842 63.9154 20.999 63.1016 20.999C62.3984 20.999 61.793 20.859 61.2852 20.5791C60.7839 20.2992 60.403 19.889 60.1426 19.3486C59.8887 18.8148 59.7617 18.18 59.7617 17.4443C59.7617 16.8649 59.8529 16.2529 60.0352 15.6084C60.224 14.9574 60.4941 14.3031 60.8457 13.6455C61.1973 12.9814 61.627 12.2979 62.1348 11.5947C62.6491 10.8916 63.2513 10.1527 63.9414 9.37793C64.6576 8.57715 65.3639 7.88704 66.0605 7.30762C66.7572 6.72168 67.3887 6.2627 67.9551 5.93066C68.5215 5.59863 69.0456 5.35124 69.5273 5.18848C70.0156 5.02572 70.4193 4.94434 70.7383 4.94434C71.0638 4.94434 71.3405 5.02246 71.5684 5.17871C71.7962 5.33496 71.972 5.56283 72.0957 5.8623C72.2194 6.16178 72.2812 6.50684 72.2812 6.89746C72.2812 7.63314 72.0306 8.45345 71.5293 9.3584C71.028 10.2568 70.403 11.126 69.6543 11.9658C68.9056 12.8057 68.1895 13.4925 67.5059 14.0264C66.8288 14.5537 66.3405 14.8174 66.041 14.8174C65.8392 14.8174 65.6504 14.7393 65.4746 14.583C65.3053 14.4202 65.2207 14.238 65.2207 14.0361C65.2207 13.665 65.416 13.2158 65.8066 12.6885C66.2038 12.1611 66.6335 11.6794 67.0957 11.2432C67.5645 10.8005 67.8444 10.5791 67.9355 10.5791C67.9811 10.5791 68.0039 10.5986 68.0039 10.6377C68.0039 10.6963 67.9681 10.7972 67.8965 10.9404C67.8314 11.0837 67.7988 11.1715 67.7988 11.2041C67.7988 11.2562 67.8184 11.2822 67.8574 11.2822C67.9681 11.2822 68.2871 10.986 68.8145 10.3936C69.3418 9.80111 69.8236 9.15007 70.2598 8.44043C70.7025 7.72428 70.9238 7.13835 70.9238 6.68262C70.9238 6.49382 70.8815 6.35059 70.7969 6.25293C70.7188 6.14876 70.5983 6.09668 70.4355 6.09668C69.9798 6.09668 69.2865 6.46777 68.3555 7.20996C67.431 7.94564 66.4805 8.88639 65.5039 10.0322C64.5339 11.1715 63.7233 12.3499 63.0723 13.5674C62.4212 14.7848 62.0957 15.8558 62.0957 16.7803C62.0957 17.3141 62.1738 17.7601 62.3301 18.1182C62.4928 18.4762 62.7272 18.7529 63.0332 18.9482C63.3457 19.1436 63.7201 19.2412 64.1562 19.2412C65.1003 19.2412 66.1712 18.8734 67.3691 18.1377C68.5671 17.402 69.8854 16.318 71.3242 14.8857ZM92.668 17.1025L88.9863 15.3057C88.0488 16.5882 87.5247 17.4346 87.4141 17.8447C87.3359 18.1377 87.1602 18.3818 86.8867 18.5771C86.6198 18.779 86.4277 18.8799 86.3105 18.8799C85.9785 18.8799 85.8125 18.7529 85.8125 18.499C85.8125 18.3558 86.0078 17.9456 86.3984 17.2686C86.7956 16.585 87.3392 15.7809 88.0293 14.8564C87.6452 14.7002 87.4076 14.596 87.3164 14.5439C87.2253 14.4919 87.1895 14.3942 87.209 14.251C87.2285 14.1012 87.3424 13.8701 87.5508 13.5576C87.7331 13.2842 87.8698 13.1019 87.9609 13.0107C88.0521 12.9131 88.1595 12.8382 88.2832 12.7861C88.4069 12.7275 88.5371 12.6885 88.6738 12.6689C88.8105 12.6494 89.1947 12.6006 89.8262 12.5225C90.3405 11.8258 90.8971 11.0739 91.4961 10.2666C92.1016 9.45931 92.5736 8.83105 92.9121 8.38184C91.89 8.51855 91.1771 8.63249 90.7734 8.72363C90.3438 8.80827 89.9824 8.87988 89.6895 8.93848C89.403 8.99056 89.2012 9.03939 89.084 9.08496C88.9668 9.12402 88.9082 9.18262 88.9082 9.26074C88.9082 9.33236 88.9798 9.38118 89.123 9.40723C89.2663 9.43327 89.4453 9.44629 89.6602 9.44629C89.8815 9.44629 90.0508 9.45605 90.168 9.47559C90.2917 9.48861 90.3535 9.52441 90.3535 9.58301C90.3535 9.64811 90.2721 9.68717 90.1094 9.7002C89.9531 9.70671 89.5072 9.72624 88.7715 9.75879C88.3548 9.77181 88.0033 9.78483 87.7168 9.79785C87.4368 9.81087 87.2415 9.81738 87.1309 9.81738C86.9811 9.81738 86.8639 9.77181 86.7793 9.68066C86.6947 9.58952 86.6523 9.46908 86.6523 9.31934C86.6523 9.20866 86.7142 9.00358 86.8379 8.7041C86.9616 8.40462 87.1374 8.10189 87.3652 7.7959C87.5931 7.48991 87.8535 7.25228 88.1465 7.08301C88.4785 6.88118 88.9928 6.67936 89.6895 6.47754C90.3926 6.26921 91.1706 6.10319 92.0234 5.97949C92.8828 5.84928 93.7324 5.78418 94.5723 5.78418C95.0801 5.78418 95.5749 5.81348 96.0566 5.87207C96.5449 5.93066 96.9844 6.00228 97.375 6.08691C97.7721 6.17155 98.0846 6.25618 98.3125 6.34082C98.9049 6.53613 99.3574 6.83236 99.6699 7.22949C99.9889 7.62663 100.148 8.06283 100.148 8.53809C100.148 9.00033 100.067 9.4528 99.9043 9.89551C99.748 10.3317 99.5039 10.7386 99.1719 11.1162C98.8464 11.4873 98.4525 11.79 97.9902 12.0244C97.6126 12.2197 97.0397 12.4183 96.2715 12.6201C95.5033 12.8219 94.5755 13.001 93.4883 13.1572C92.401 13.3135 91.1868 13.4274 89.8457 13.499C90.8483 13.8506 91.7826 14.2054 92.6484 14.5635C93.5208 14.915 94.2533 15.2308 94.8457 15.5107C95.4447 15.7842 95.9134 16.0088 96.252 16.1846C96.7272 16.432 97.0365 16.611 97.1797 16.7217C97.3229 16.8324 97.4173 16.9756 97.4629 17.1514C97.5085 17.3271 97.5312 17.6169 97.5312 18.0205C97.5312 18.4762 97.502 18.8115 97.4434 19.0264C97.3913 19.2477 97.2741 19.3584 97.0918 19.3584C97.0332 19.3584 96.877 19.2933 96.623 19.1631C96.3757 19.0394 96.0306 18.8538 95.5879 18.6064C95.1452 18.3656 94.7415 18.1507 94.377 17.9619C94.0189 17.7666 93.4492 17.4801 92.668 17.1025ZM93.5273 8.28418C93.5339 8.32975 93.5371 8.37207 93.5371 8.41113C93.5436 8.4502 93.5469 8.50553 93.5469 8.57715C93.5469 8.75944 93.4883 8.97103 93.3711 9.21191C93.2604 9.44629 93.1139 9.69043 92.9316 9.94434C92.7559 10.1917 92.4889 10.5498 92.1309 11.0186C91.7793 11.4808 91.4538 11.9072 91.1543 12.2979C92.5215 12.0374 93.6868 11.7868 94.6504 11.5459C95.6204 11.305 96.418 11.0641 97.043 10.8232C97.668 10.5758 98.1367 10.3187 98.4492 10.0518C98.7682 9.77832 98.9277 9.49512 98.9277 9.20215C98.9277 8.87663 98.5957 8.62272 97.9316 8.44043C97.2741 8.25163 96.4668 8.15723 95.5098 8.15723C95.3145 8.15723 95.1061 8.16374 94.8848 8.17676C94.6699 8.18327 94.4095 8.2028 94.1035 8.23535C93.804 8.26139 93.612 8.27767 93.5273 8.28418ZM129.1 14.8857V15.5596C128.481 16.139 127.954 16.6077 127.518 16.9658C127.088 17.3174 126.658 17.6364 126.229 17.9229C125.799 18.2028 125.441 18.4014 125.154 18.5186C124.874 18.6423 124.633 18.7041 124.432 18.7041C123.95 18.7041 123.556 18.5251 123.25 18.167C122.944 17.8089 122.791 17.3467 122.791 16.7803C122.791 16.1292 122.921 15.4847 123.182 14.8467C123.449 14.2087 123.826 13.5511 124.314 12.874C124.803 12.1904 125.415 11.4255 126.15 10.5791C126.697 9.9541 126.971 9.60254 126.971 9.52441C126.971 9.47884 126.954 9.43978 126.922 9.40723C126.889 9.37467 126.854 9.3584 126.814 9.3584C126.691 9.3584 126.31 9.63184 125.672 10.1787C125.034 10.7256 124.214 11.5296 123.211 12.5908C122.215 13.652 121.137 14.915 119.979 16.3799C119.913 16.458 119.705 16.7249 119.354 17.1807C119.008 17.6299 118.764 17.9229 118.621 18.0596C118.478 18.1963 118.354 18.2646 118.25 18.2646C118.068 18.2646 117.908 18.0824 117.771 17.7178C117.641 17.3467 117.576 16.9528 117.576 16.5361C117.576 16.2822 117.658 16.0088 117.82 15.7158C117.99 15.4229 118.351 14.8988 118.904 14.1436C119.464 13.3818 119.926 12.7406 120.291 12.2197C120.656 11.6989 121.056 11.0674 121.492 10.3252C121.798 9.81087 122.023 9.40072 122.166 9.09473C122.316 8.78874 122.391 8.51855 122.391 8.28418C122.391 8.08236 122.332 7.98145 122.215 7.98145C121.967 7.98145 121.502 8.31348 120.818 8.97754C120.135 9.63509 119.288 10.6149 118.279 11.917C117.277 13.2191 116.229 14.7262 115.135 16.4385C114.777 17.0244 114.523 17.4183 114.373 17.6201C114.223 17.8219 114.057 17.9229 113.875 17.9229C113.647 17.9229 113.432 17.682 113.23 17.2002C113.035 16.7119 112.938 16.318 112.938 16.0186C112.938 15.9209 112.977 15.8135 113.055 15.6963C113.914 14.5505 114.62 13.5771 115.174 12.7764C115.727 11.9756 116.219 11.2171 116.648 10.501C117.078 9.77832 117.391 9.18587 117.586 8.72363C117.781 8.25488 117.879 7.88704 117.879 7.62012C117.879 7.34017 117.752 7.2002 117.498 7.2002C117.29 7.2002 116.935 7.33366 116.434 7.60059C115.932 7.86751 115.298 8.2321 114.529 8.69434C113.768 9.15658 113.156 9.51139 112.693 9.75879C112.231 9.99967 111.886 10.1201 111.658 10.1201C111.443 10.1201 111.336 9.99967 111.336 9.75879C111.336 9.62207 111.382 9.30957 111.473 8.82129C111.564 8.3265 111.658 7.97819 111.756 7.77637C111.893 7.51595 112.241 7.1709 112.801 6.74121C113.367 6.31152 113.68 6.09668 113.738 6.09668C113.79 6.09668 113.816 6.11947 113.816 6.16504C113.816 6.19108 113.79 6.23014 113.738 6.28223C113.471 6.49707 113.273 6.67285 113.143 6.80957C113.012 6.94629 112.931 7.09603 112.898 7.25879C114.09 6.54264 115.154 5.99902 116.092 5.62793C117.036 5.25033 117.69 5.06152 118.055 5.06152C118.237 5.06152 118.41 5.18522 118.572 5.43262C118.735 5.6735 118.872 5.95671 118.982 6.28223C119.1 6.60124 119.158 6.80632 119.158 6.89746C119.158 7.22949 119.074 7.62337 118.904 8.0791C118.735 8.52832 118.504 9.05241 118.211 9.65137C117.924 10.2503 117.566 10.999 117.137 11.8975C117.475 11.4613 117.798 11.0576 118.104 10.6865C118.41 10.3154 118.712 9.9541 119.012 9.60254C119.318 9.25098 119.627 8.89616 119.939 8.53809C120.363 8.0498 120.838 7.58431 121.365 7.1416C121.893 6.69238 122.384 6.3278 122.84 6.04785C123.302 5.76139 123.615 5.61816 123.777 5.61816C124.005 5.61816 124.207 5.74512 124.383 5.99902C124.565 6.24642 124.656 6.51335 124.656 6.7998C124.656 6.98861 124.533 7.34993 124.285 7.88379C124.038 8.41764 123.676 9.10124 123.201 9.93457C122.726 10.7679 122.098 11.8421 121.316 13.1572C122.059 12.3695 122.83 11.5589 123.631 10.7256C124.432 9.89225 125.027 9.28353 125.418 8.89941C125.809 8.5153 126.134 8.22233 126.395 8.02051C126.753 7.74707 127.111 7.4541 127.469 7.1416C127.833 6.82259 128.12 6.57194 128.328 6.38965C128.536 6.20736 128.722 6.06738 128.885 5.96973C129.048 5.87207 129.197 5.82324 129.334 5.82324C129.503 5.82324 129.715 6.01855 129.969 6.40918C130.229 6.7998 130.359 7.05046 130.359 7.16113C130.359 7.29785 130.281 7.46061 130.125 7.64941C129.975 7.83822 129.66 8.18978 129.178 8.7041C128.292 9.65462 127.524 10.6149 126.873 11.585C126.222 12.5485 125.727 13.4307 125.389 14.2314C125.057 15.0257 124.891 15.654 124.891 16.1162C124.891 16.4027 124.943 16.611 125.047 16.7412C125.158 16.8714 125.327 16.9365 125.555 16.9365C125.763 16.9365 125.955 16.8975 126.131 16.8193C126.313 16.7412 126.512 16.6305 126.727 16.4873C126.948 16.3441 127.156 16.2074 127.352 16.0771C127.625 15.9144 127.892 15.7419 128.152 15.5596C128.419 15.3708 128.624 15.2243 128.768 15.1201C128.917 15.0094 129.028 14.9313 129.1 14.8857Z" fill="#477AAA"/>
<path d="M19.5749 17.1436C20.5361 15.4717 22.9483 15.4717 23.9095 17.1436L29.3439 26.5957C30.3021 28.2624 29.0991 30.3418 27.1766 30.3418H16.3079C14.3854 30.3418 13.1823 28.2624 14.1405 26.5957L19.5749 17.1436Z" fill="#477AAA" stroke="white" stroke-width="3"/>
<path d="M23.6327 18.9579C22.6874 20.6378 20.2753 20.6581 19.2982 18.9943L13.7743 9.5883C12.8003 7.92976 13.9836 5.84034 15.906 5.82419L26.7742 5.7329C28.6966 5.71675 29.9194 7.78595 28.9771 9.46059L23.6327 18.9579Z" fill="white" stroke="#ED7D31" stroke-width="3"/>
</g>
<defs>
<filter id="filter0_d_780_3440" x="-34" y="0" width="192" height="47" filterUnits="userSpaceOnUse" color-interpolation-filters="sRGB">
<feFlood flood-opacity="0" result="BackgroundImageFix"/>
<feColorMatrix in="SourceAlpha" type="matrix" values="0 0 0 0 0 0 0 0 0 0 0 0 0 0 0 0 0 0 127 0" result="hardAlpha"/>
<feOffset dy="4"/>
<feGaussianBlur stdDeviation="2"/>
<feComposite in2="hardAlpha" operator="out"/>
<feColorMatrix type="matrix" values="0 0 0 0 0 0 0 0 0 0 0 0 0 0 0 0 0 0 0.25 0"/>
<feBlend mode="normal" in2="BackgroundImageFix" result="effect1_dropShadow_780_3440"/>
<feBlend mode="normal" in="SourceGraphic" in2="effect1_dropShadow_780_3440" result="shape"/>
</filter>
</defs>
</svg>
