<svg width="174" height="35" viewBox="0 0 174 35" fill="none" xmlns="http://www.w3.org/2000/svg">
<rect x="1" y="1" width="33" height="33" rx="16.5" stroke="#ED7D31" stroke-width="2"/>
<path d="M47.6793 18.7071C48.0698 18.3166 48.0698 17.6834 47.6793 17.2929L41.3153 10.9289C40.9248 10.5384 40.2916 10.5384 39.9011 10.9289C39.5106 11.3195 39.5106 11.9526 39.9011 12.3431L45.558 18L39.9011 23.6569C39.5106 24.0474 39.5106 24.6805 39.9011 25.0711C40.2916 25.4616 40.9248 25.4616 41.3153 25.0711L47.6793 18.7071ZM16.9722 19H46.9722V17H16.9722V19Z" fill="#ED7D31"/>
<path d="M58.792 20.992C58.792 20.6507 58.664 20.3733 58.408 20.16C58.1627 19.9467 57.848 19.7547 57.464 19.584C57.0907 19.4027 56.68 19.2213 56.232 19.04C55.7947 18.848 55.384 18.6187 55 18.352C54.6267 18.0747 54.312 17.7333 54.056 17.328C53.8107 16.9227 53.688 16.4053 53.688 15.776C53.688 15.232 53.7787 14.7627 53.96 14.368C54.1413 13.9627 54.3973 13.6267 54.728 13.36C55.0693 13.0933 55.4693 12.896 55.928 12.768C56.3867 12.64 56.8987 12.576 57.464 12.576C58.1147 12.576 58.728 12.6347 59.304 12.752C59.88 12.8587 60.3547 13.0187 60.728 13.232L60.04 15.072C59.8053 14.9227 59.4533 14.7893 58.984 14.672C58.5147 14.544 58.008 14.48 57.464 14.48C56.952 14.48 56.5573 14.5813 56.28 14.784C56.0133 14.9867 55.88 15.2587 55.88 15.6C55.88 15.92 56.0027 16.1867 56.248 16.4C56.504 16.6133 56.8187 16.8107 57.192 16.992C57.576 17.1733 57.9867 17.36 58.424 17.552C58.872 17.744 59.2827 17.9787 59.656 18.256C60.04 18.5227 60.3547 18.8587 60.6 19.264C60.856 19.6587 60.984 20.1547 60.984 20.752C60.984 21.3493 60.8827 21.8667 60.68 22.304C60.488 22.7307 60.2107 23.088 59.848 23.376C59.496 23.664 59.064 23.8773 58.552 24.016C58.0507 24.1547 57.496 24.224 56.888 24.224C56.088 24.224 55.384 24.1493 54.776 24C54.168 23.8507 53.72 23.7013 53.432 23.552L54.136 21.68C54.2533 21.744 54.4027 21.8133 54.584 21.888C54.776 21.9627 54.9893 22.032 55.224 22.096C55.4587 22.16 55.704 22.2133 55.96 22.256C56.2267 22.2987 56.4987 22.32 56.776 22.32C57.4267 22.32 57.9227 22.2133 58.264 22C58.616 21.776 58.792 21.44 58.792 20.992ZM62.5724 16H64.6524V24H62.5724V16ZM62.2684 13.744C62.2684 13.4347 62.3804 13.1733 62.6044 12.96C62.839 12.736 63.159 12.624 63.5644 12.624C63.9697 12.624 64.295 12.736 64.5404 12.96C64.7964 13.1733 64.9244 13.4347 64.9244 13.744C64.9244 14.0533 64.7964 14.3147 64.5404 14.528C64.295 14.7307 63.9697 14.832 63.5644 14.832C63.159 14.832 62.839 14.7307 62.6044 14.528C62.3804 14.3147 62.2684 14.0533 62.2684 13.744ZM73.4613 24C73.4613 25.1627 73.1466 26.016 72.5173 26.56C71.8879 27.1147 71.0079 27.392 69.8773 27.392C69.1093 27.392 68.5013 27.3387 68.0533 27.232C67.6159 27.1253 67.2853 27.0133 67.0613 26.896L67.4933 25.248C67.7386 25.344 68.0213 25.44 68.3413 25.536C68.6719 25.632 69.0773 25.68 69.5573 25.68C70.2826 25.68 70.7733 25.52 71.0293 25.2C71.2959 24.8907 71.4293 24.4533 71.4293 23.888V23.376H71.3653C70.9919 23.8773 70.3306 24.128 69.3813 24.128C68.3466 24.128 67.5733 23.808 67.0613 23.168C66.5599 22.528 66.3092 21.5253 66.3092 20.16C66.3092 18.7307 66.6506 17.648 67.3333 16.912C68.0159 16.176 69.0079 15.808 70.3093 15.808C70.9919 15.808 71.5999 15.856 72.1333 15.952C72.6773 16.048 73.1199 16.16 73.4613 16.288V24ZM69.9413 22.464C70.3466 22.464 70.6559 22.3733 70.8693 22.192C71.0933 22.0107 71.2639 21.7387 71.3813 21.376V17.776C71.0506 17.6373 70.6399 17.568 70.1493 17.568C69.6159 17.568 69.1999 17.7707 68.9013 18.176C68.6026 18.5707 68.4533 19.2053 68.4533 20.08C68.4533 20.8587 68.5813 21.4507 68.8373 21.856C69.0933 22.2613 69.4613 22.464 69.9413 22.464ZM80.1674 24V19.456C80.1674 18.8053 80.0714 18.336 79.8794 18.048C79.698 17.76 79.3834 17.616 78.9354 17.616C78.5407 17.616 78.2047 17.7333 77.9274 17.968C77.6607 18.192 77.4687 18.4747 77.3514 18.816V24H75.2714V16H76.9194L77.1594 17.056H77.2234C77.4687 16.7147 77.794 16.416 78.1994 16.16C78.6047 15.904 79.1274 15.776 79.7674 15.776C80.162 15.776 80.514 15.8293 80.8234 15.936C81.1327 16.0427 81.394 16.2187 81.6074 16.464C81.8207 16.7093 81.9807 17.0453 82.0874 17.472C82.194 17.888 82.2474 18.4053 82.2474 19.024V24H80.1674ZM90.037 16V20.544C90.037 21.1947 90.1117 21.664 90.261 21.952C90.421 22.24 90.725 22.384 91.173 22.384C91.5677 22.384 91.893 22.2667 92.149 22.032C92.4157 21.7973 92.613 21.5093 92.741 21.168V16H94.821V21.568C94.821 22.0053 94.8423 22.4373 94.885 22.864C94.9277 23.28 94.9917 23.6587 95.077 24H93.509L93.141 22.816H93.077C92.8317 23.2213 92.4903 23.5573 92.053 23.824C91.6157 24.0907 91.0983 24.224 90.501 24.224C90.0957 24.224 89.733 24.1707 89.413 24.064C89.093 23.9573 88.8263 23.7813 88.613 23.536C88.3997 23.2907 88.2343 22.96 88.117 22.544C88.0103 22.128 87.957 21.6053 87.957 20.976V16H90.037ZM96.6464 16H98.1664L98.4064 16.96H98.4704C98.7477 16.5547 99.073 16.256 99.4464 16.064C99.8304 15.872 100.294 15.776 100.838 15.776C101.841 15.776 102.593 16.096 103.094 16.736C103.596 17.3653 103.846 18.384 103.846 19.792C103.846 20.4747 103.766 21.0933 103.606 21.648C103.446 22.192 103.206 22.656 102.886 23.04C102.577 23.424 102.193 23.7173 101.734 23.92C101.286 24.1227 100.769 24.224 100.182 24.224C99.8517 24.224 99.5797 24.1973 99.3664 24.144C99.153 24.1013 98.9397 24.0267 98.7264 23.92V27.2H96.6464V16ZM100.214 17.536C99.809 17.536 99.489 17.6373 99.2544 17.84C99.0304 18.0427 98.8544 18.3467 98.7264 18.752V22.08C98.8757 22.1973 99.0357 22.2933 99.2064 22.368C99.3877 22.432 99.6224 22.464 99.9104 22.464C100.508 22.464 100.956 22.256 101.254 21.84C101.553 21.4133 101.702 20.7147 101.702 19.744C101.702 19.04 101.585 18.496 101.35 18.112C101.116 17.728 100.737 17.536 100.214 17.536ZM108.598 16H109.702V15.552C109.702 14.5387 109.915 13.808 110.342 13.36C110.769 12.9013 111.387 12.672 112.198 12.672C113.051 12.672 113.761 12.7733 114.326 12.976L113.926 14.64C113.681 14.5547 113.462 14.5013 113.27 14.48C113.089 14.448 112.897 14.432 112.694 14.432C112.481 14.432 112.31 14.464 112.182 14.528C112.065 14.592 111.974 14.6933 111.91 14.832C111.857 14.96 111.819 15.1253 111.798 15.328C111.787 15.52 111.782 15.744 111.782 16H113.542V17.76H111.782V24H109.702V17.76H108.598V16ZM114.012 20C114.012 18.6453 114.343 17.6053 115.004 16.88C115.666 16.144 116.594 15.776 117.788 15.776C118.428 15.776 118.983 15.8773 119.452 16.08C119.922 16.2827 120.311 16.5707 120.62 16.944C120.93 17.3067 121.159 17.7493 121.308 18.272C121.468 18.7947 121.548 19.3707 121.548 20C121.548 21.3547 121.218 22.4 120.556 23.136C119.906 23.8613 118.983 24.224 117.788 24.224C117.148 24.224 116.594 24.1227 116.124 23.92C115.655 23.7173 115.26 23.4347 114.94 23.072C114.631 22.6987 114.396 22.2507 114.236 21.728C114.087 21.2053 114.012 20.6293 114.012 20ZM116.156 20C116.156 20.352 116.188 20.6773 116.252 20.976C116.316 21.2747 116.412 21.536 116.54 21.76C116.668 21.984 116.834 22.16 117.036 22.288C117.25 22.4053 117.5 22.464 117.788 22.464C118.332 22.464 118.738 22.2667 119.004 21.872C119.271 21.4773 119.404 20.8533 119.404 20C119.404 19.264 119.282 18.672 119.036 18.224C118.791 17.7653 118.375 17.536 117.788 17.536C117.276 17.536 116.876 17.728 116.588 18.112C116.3 18.496 116.156 19.1253 116.156 20ZM127.406 17.952C127.075 17.8347 126.777 17.776 126.51 17.776C126.137 17.776 125.822 17.8773 125.566 18.08C125.321 18.272 125.155 18.5227 125.07 18.832V24H122.99V16H124.606L124.846 17.056H124.91C125.091 16.6613 125.337 16.3573 125.646 16.144C125.955 15.9307 126.318 15.824 126.734 15.824C127.011 15.824 127.326 15.8827 127.678 16L127.406 17.952ZM131.91 16H133.014V15.552C133.014 14.5387 133.228 13.808 133.654 13.36C134.081 12.9013 134.7 12.672 135.51 12.672C136.364 12.672 137.073 12.7733 137.638 12.976L137.238 14.64C136.993 14.5547 136.774 14.5013 136.582 14.48C136.401 14.448 136.209 14.432 136.006 14.432C135.793 14.432 135.622 14.464 135.494 14.528C135.377 14.592 135.286 14.6933 135.222 14.832C135.169 14.96 135.132 15.1253 135.11 15.328C135.1 15.52 135.094 15.744 135.094 16H136.854V17.76H135.094V24H133.014V17.76H131.91V16ZM142.203 17.952C141.872 17.8347 141.574 17.776 141.307 17.776C140.934 17.776 140.619 17.8773 140.363 18.08C140.118 18.272 139.952 18.5227 139.867 18.832V24H137.787V16H139.403L139.643 17.056H139.707C139.888 16.6613 140.134 16.3573 140.443 16.144C140.752 15.9307 141.115 15.824 141.531 15.824C141.808 15.824 142.123 15.8827 142.475 16L142.203 17.952ZM149.796 23.312C149.476 23.568 149.039 23.7867 148.484 23.968C147.94 24.1387 147.359 24.224 146.74 24.224C145.45 24.224 144.506 23.8507 143.908 23.104C143.311 22.3467 143.012 21.312 143.012 20C143.012 18.592 143.348 17.536 144.02 16.832C144.692 16.128 145.636 15.776 146.852 15.776C147.258 15.776 147.652 15.8293 148.036 15.936C148.42 16.0427 148.762 16.2187 149.06 16.464C149.359 16.7093 149.599 17.04 149.78 17.456C149.962 17.872 150.052 18.3893 150.052 19.008C150.052 19.232 150.036 19.472 150.004 19.728C149.983 19.984 149.946 20.2507 149.892 20.528H145.092C145.124 21.2 145.295 21.7067 145.604 22.048C145.924 22.3893 146.436 22.56 147.14 22.56C147.578 22.56 147.967 22.496 148.308 22.368C148.66 22.2293 148.927 22.0907 149.108 21.952L149.796 23.312ZM146.82 17.44C146.276 17.44 145.871 17.6053 145.604 17.936C145.348 18.256 145.194 18.688 145.14 19.232H148.116C148.159 18.656 148.068 18.2133 147.844 17.904C147.631 17.5947 147.29 17.44 146.82 17.44ZM157.843 23.312C157.523 23.568 157.086 23.7867 156.531 23.968C155.987 24.1387 155.406 24.224 154.787 24.224C153.497 24.224 152.553 23.8507 151.955 23.104C151.358 22.3467 151.059 21.312 151.059 20C151.059 18.592 151.395 17.536 152.067 16.832C152.739 16.128 153.683 15.776 154.899 15.776C155.305 15.776 155.699 15.8293 156.083 15.936C156.467 16.0427 156.809 16.2187 157.107 16.464C157.406 16.7093 157.646 17.04 157.827 17.456C158.009 17.872 158.099 18.3893 158.099 19.008C158.099 19.232 158.083 19.472 158.051 19.728C158.03 19.984 157.993 20.2507 157.939 20.528H153.139C153.171 21.2 153.342 21.7067 153.651 22.048C153.971 22.3893 154.483 22.56 155.187 22.56C155.625 22.56 156.014 22.496 156.355 22.368C156.707 22.2293 156.974 22.0907 157.155 21.952L157.843 23.312ZM154.867 17.44C154.323 17.44 153.918 17.6053 153.651 17.936C153.395 18.256 153.241 18.688 153.187 19.232H156.163C156.206 18.656 156.115 18.2133 155.891 17.904C155.678 17.5947 155.337 17.44 154.867 17.44Z" fill="#ED7D31"/>
</svg>
