<svg width="28" height="28" viewBox="0 0 28 28" fill="none" xmlns="http://www.w3.org/2000/svg">
<g filter="url(#filter0_d_780_4904)">
<circle cx="14" cy="13" r="10" fill="#ED7D31"/>
<circle cx="14" cy="13" r="9.5" stroke="#ED7D31"/>
</g>
<path d="M13.6221 7.43605C13.8215 7.20597 14.1785 7.20597 14.3779 7.43605L17.6131 11.1694C17.8937 11.4932 17.6637 11.9969 17.2352 11.9969H10.7648C10.3363 11.9969 10.1063 11.4932 10.3869 11.1694L13.6221 7.43605Z" fill="white"/>
<path d="M14.378 18.5636C14.1786 18.7938 13.8214 18.7938 13.622 18.5636L10.3864 14.8273C10.1059 14.5035 10.3359 14 10.7643 14H17.2357C17.6641 14 17.8941 14.5035 17.6136 14.8273L14.378 18.5636Z" fill="#477AAA"/>
<defs>
<filter id="filter0_d_780_4904" x="0" y="0" width="28" height="28" filterUnits="userSpaceOnUse" color-interpolation-filters="sRGB">
<feFlood flood-opacity="0" result="BackgroundImageFix"/>
<feColorMatrix in="SourceAlpha" type="matrix" values="0 0 0 0 0 0 0 0 0 0 0 0 0 0 0 0 0 0 127 0" result="hardAlpha"/>
<feOffset dy="1"/>
<feGaussianBlur stdDeviation="2"/>
<feComposite in2="hardAlpha" operator="out"/>
<feColorMatrix type="matrix" values="0 0 0 0 0 0 0 0 0 0 0 0 0 0 0 0 0 0 0.25 0"/>
<feBlend mode="normal" in2="BackgroundImageFix" result="effect1_dropShadow_780_4904"/>
<feBlend mode="normal" in="SourceGraphic" in2="effect1_dropShadow_780_4904" result="shape"/>
</filter>
</defs>
</svg>
