<svg width="126" height="36" viewBox="0 0 126 36" fill="none" xmlns="http://www.w3.org/2000/svg">
<path d="M54.113 26.613C53.933 26.757 53.687 26.88 53.375 26.982C53.069 27.078 52.742 27.126 52.394 27.126C51.668 27.126 51.137 26.916 50.801 26.496C50.465 26.07 50.297 25.488 50.297 24.75C50.297 23.958 50.486 23.364 50.864 22.968C51.242 22.572 51.773 22.374 52.457 22.374C52.685 22.374 52.907 22.404 53.123 22.464C53.339 22.524 53.531 22.623 53.699 22.761C53.867 22.899 54.002 23.085 54.104 23.319C54.206 23.553 54.257 23.844 54.257 24.192C54.257 24.318 54.248 24.453 54.23 24.597C54.218 24.741 54.197 24.891 54.167 25.047H51.467C51.485 25.425 51.581 25.71 51.755 25.902C51.935 26.094 52.223 26.19 52.619 26.19C52.865 26.19 53.084 26.154 53.276 26.082C53.474 26.004 53.624 25.926 53.726 25.848L54.113 26.613ZM52.439 23.31C52.133 23.31 51.905 23.403 51.755 23.589C51.611 23.769 51.524 24.012 51.494 24.318H53.168C53.192 23.994 53.141 23.745 53.015 23.571C52.895 23.397 52.703 23.31 52.439 23.31ZM56.2893 25.488C56.2893 25.698 56.3163 25.851 56.3703 25.947C56.4243 26.043 56.5113 26.091 56.6313 26.091C56.7033 26.091 56.7723 26.085 56.8383 26.073C56.9103 26.061 56.9973 26.034 57.0993 25.992L57.2253 26.91C57.1293 26.958 56.9823 27.006 56.7843 27.054C56.5863 27.102 56.3823 27.126 56.1723 27.126C55.8303 27.126 55.5693 27.048 55.3893 26.892C55.2093 26.73 55.1193 26.466 55.1193 26.1V20.7H56.2893V25.488ZM61.3288 26.613C61.1488 26.757 60.9028 26.88 60.5908 26.982C60.2848 27.078 59.9578 27.126 59.6098 27.126C58.8838 27.126 58.3528 26.916 58.0168 26.496C57.6808 26.07 57.5128 25.488 57.5128 24.75C57.5128 23.958 57.7018 23.364 58.0798 22.968C58.4578 22.572 58.9888 22.374 59.6728 22.374C59.9008 22.374 60.1228 22.404 60.3388 22.464C60.5548 22.524 60.7468 22.623 60.9148 22.761C61.0828 22.899 61.2178 23.085 61.3198 23.319C61.4218 23.553 61.4728 23.844 61.4728 24.192C61.4728 24.318 61.4638 24.453 61.4458 24.597C61.4338 24.741 61.4128 24.891 61.3828 25.047H58.6828C58.7008 25.425 58.7968 25.71 58.9708 25.902C59.1508 26.094 59.4388 26.19 59.8348 26.19C60.0808 26.19 60.2998 26.154 60.4918 26.082C60.6898 26.004 60.8398 25.926 60.9418 25.848L61.3288 26.613ZM59.6548 23.31C59.3488 23.31 59.1208 23.403 58.9708 23.589C58.8268 23.769 58.7398 24.012 58.7098 24.318H60.3838C60.4078 23.994 60.3568 23.745 60.2308 23.571C60.1108 23.397 59.9188 23.31 59.6548 23.31ZM63.7331 24.858L63.8861 25.551H63.9311L64.0571 24.84L64.8221 22.5H66.0821L64.2011 27.045H63.4901L61.5371 22.5H62.8961L63.7331 24.858ZM66.4381 22.761C66.6781 22.653 66.9631 22.569 67.2931 22.509C67.6231 22.443 67.9681 22.41 68.3281 22.41C68.6401 22.41 68.9011 22.449 69.1111 22.527C69.3211 22.599 69.4861 22.704 69.6061 22.842C69.7321 22.98 69.8191 23.145 69.8671 23.337C69.9211 23.529 69.9481 23.745 69.9481 23.985C69.9481 24.249 69.9391 24.516 69.9211 24.786C69.9031 25.05 69.8911 25.311 69.8851 25.569C69.8851 25.827 69.8941 26.079 69.9121 26.325C69.9301 26.565 69.9751 26.793 70.0471 27.009H69.0931L68.9041 26.388H68.8591C68.7391 26.574 68.5711 26.736 68.3551 26.874C68.1451 27.006 67.8721 27.072 67.5361 27.072C67.3261 27.072 67.1371 27.042 66.9691 26.982C66.8011 26.916 66.6571 26.826 66.5371 26.712C66.4171 26.592 66.3241 26.454 66.2581 26.298C66.1921 26.136 66.1591 25.956 66.1591 25.758C66.1591 25.482 66.2191 25.251 66.3391 25.065C66.4651 24.873 66.6421 24.72 66.8701 24.606C67.1041 24.486 67.3801 24.405 67.6981 24.363C68.0221 24.315 68.3821 24.3 68.7781 24.318C68.8201 23.982 68.7961 23.742 68.7061 23.598C68.6161 23.448 68.4151 23.373 68.1031 23.373C67.8691 23.373 67.6201 23.397 67.3561 23.445C67.0981 23.493 66.8851 23.556 66.7171 23.634L66.4381 22.761ZM67.9231 26.109C68.1571 26.109 68.3431 26.058 68.4811 25.956C68.6191 25.848 68.7211 25.734 68.7871 25.614V25.029C68.6011 25.011 68.4211 25.008 68.2471 25.02C68.0791 25.032 67.9291 25.059 67.7971 25.101C67.6651 25.143 67.5601 25.203 67.4821 25.281C67.4041 25.359 67.3651 25.458 67.3651 25.578C67.3651 25.746 67.4131 25.878 67.5091 25.974C67.6111 26.064 67.7491 26.109 67.9231 26.109ZM70.462 22.5H71.083V21.654L72.253 21.321V22.5H73.351V23.49H72.253V25.218C72.253 25.53 72.283 25.755 72.343 25.893C72.409 26.025 72.529 26.091 72.703 26.091C72.823 26.091 72.925 26.079 73.009 26.055C73.099 26.031 73.198 25.995 73.306 25.947L73.513 26.847C73.351 26.925 73.162 26.991 72.946 27.045C72.73 27.099 72.511 27.126 72.289 27.126C71.875 27.126 71.569 27.021 71.371 26.811C71.179 26.595 71.083 26.244 71.083 25.758V23.49H70.462V22.5ZM77.6237 26.613C77.4437 26.757 77.1977 26.88 76.8857 26.982C76.5797 27.078 76.2527 27.126 75.9047 27.126C75.1787 27.126 74.6477 26.916 74.3117 26.496C73.9757 26.07 73.8077 25.488 73.8077 24.75C73.8077 23.958 73.9967 23.364 74.3747 22.968C74.7527 22.572 75.2837 22.374 75.9677 22.374C76.1957 22.374 76.4177 22.404 76.6337 22.464C76.8497 22.524 77.0417 22.623 77.2097 22.761C77.3777 22.899 77.5127 23.085 77.6147 23.319C77.7167 23.553 77.7677 23.844 77.7677 24.192C77.7677 24.318 77.7587 24.453 77.7407 24.597C77.7287 24.741 77.7077 24.891 77.6777 25.047H74.9777C74.9957 25.425 75.0917 25.71 75.2657 25.902C75.4457 26.094 75.7337 26.19 76.1297 26.19C76.3757 26.19 76.5947 26.154 76.7867 26.082C76.9847 26.004 77.1347 25.926 77.2367 25.848L77.6237 26.613ZM75.9497 23.31C75.6437 23.31 75.4157 23.403 75.2657 23.589C75.1217 23.769 75.0347 24.012 75.0047 24.318H76.6787C76.7027 23.994 76.6517 23.745 76.5257 23.571C76.4057 23.397 76.2137 23.31 75.9497 23.31ZM80.6544 24.75C80.6544 23.988 80.8404 23.403 81.2124 22.995C81.5844 22.581 82.1064 22.374 82.7784 22.374C83.1384 22.374 83.4504 22.431 83.7144 22.545C83.9784 22.659 84.1974 22.821 84.3714 23.031C84.5454 23.235 84.6744 23.484 84.7584 23.778C84.8484 24.072 84.8934 24.396 84.8934 24.75C84.8934 25.512 84.7074 26.1 84.3354 26.514C83.9694 26.922 83.4504 27.126 82.7784 27.126C82.4184 27.126 82.1064 27.069 81.8424 26.955C81.5784 26.841 81.3564 26.682 81.1764 26.478C81.0024 26.268 80.8704 26.016 80.7804 25.722C80.6964 25.428 80.6544 25.104 80.6544 24.75ZM81.8604 24.75C81.8604 24.948 81.8784 25.131 81.9144 25.299C81.9504 25.467 82.0044 25.614 82.0764 25.74C82.1484 25.866 82.2414 25.965 82.3554 26.037C82.4754 26.103 82.6164 26.136 82.7784 26.136C83.0844 26.136 83.3124 26.025 83.4624 25.803C83.6124 25.581 83.6874 25.23 83.6874 24.75C83.6874 24.336 83.6184 24.003 83.4804 23.751C83.3424 23.493 83.1084 23.364 82.7784 23.364C82.4904 23.364 82.2654 23.472 82.1034 23.688C81.9414 23.904 81.8604 24.258 81.8604 24.75ZM85.7044 22.5H86.5594L86.6944 23.04H86.7304C86.8864 22.812 87.0694 22.644 87.2794 22.536C87.4954 22.428 87.7564 22.374 88.0624 22.374C88.6264 22.374 89.0494 22.554 89.3314 22.914C89.6134 23.268 89.7544 23.841 89.7544 24.633C89.7544 25.017 89.7094 25.365 89.6194 25.677C89.5294 25.983 89.3944 26.244 89.2144 26.46C89.0404 26.676 88.8244 26.841 88.5664 26.955C88.3144 27.069 88.0234 27.126 87.6934 27.126C87.5074 27.126 87.3544 27.111 87.2344 27.081C87.1144 27.057 86.9944 27.015 86.8744 26.955V28.8H85.7044V22.5ZM87.7114 23.364C87.4834 23.364 87.3034 23.421 87.1714 23.535C87.0454 23.649 86.9464 23.82 86.8744 24.048V25.92C86.9584 25.986 87.0484 26.04 87.1444 26.082C87.2464 26.118 87.3784 26.136 87.5404 26.136C87.8764 26.136 88.1284 26.019 88.2964 25.785C88.4644 25.545 88.5484 25.152 88.5484 24.606C88.5484 24.21 88.4824 23.904 88.3504 23.688C88.2184 23.472 88.0054 23.364 87.7114 23.364ZM90.5648 22.5H91.4198L91.5548 23.04H91.5908C91.7468 22.812 91.9298 22.644 92.1398 22.536C92.3558 22.428 92.6168 22.374 92.9228 22.374C93.4868 22.374 93.9098 22.554 94.1918 22.914C94.4738 23.268 94.6148 23.841 94.6148 24.633C94.6148 25.017 94.5698 25.365 94.4798 25.677C94.3898 25.983 94.2548 26.244 94.0748 26.46C93.9008 26.676 93.6848 26.841 93.4268 26.955C93.1748 27.069 92.8838 27.126 92.5538 27.126C92.3678 27.126 92.2148 27.111 92.0948 27.081C91.9748 27.057 91.8548 27.015 91.7348 26.955V28.8H90.5648V22.5ZM92.5718 23.364C92.3438 23.364 92.1638 23.421 92.0318 23.535C91.9058 23.649 91.8068 23.82 91.7348 24.048V25.92C91.8188 25.986 91.9088 26.04 92.0048 26.082C92.1068 26.118 92.2388 26.136 92.4008 26.136C92.7368 26.136 92.9888 26.019 93.1568 25.785C93.3248 25.545 93.4088 25.152 93.4088 24.606C93.4088 24.21 93.3428 23.904 93.2108 23.688C93.0788 23.472 92.8658 23.364 92.5718 23.364ZM95.2091 24.75C95.2091 23.988 95.3951 23.403 95.7671 22.995C96.1391 22.581 96.6611 22.374 97.3331 22.374C97.6931 22.374 98.0051 22.431 98.2691 22.545C98.5331 22.659 98.7521 22.821 98.9261 23.031C99.1001 23.235 99.2291 23.484 99.3131 23.778C99.4031 24.072 99.4481 24.396 99.4481 24.75C99.4481 25.512 99.2621 26.1 98.8901 26.514C98.5241 26.922 98.0051 27.126 97.3331 27.126C96.9731 27.126 96.6611 27.069 96.3971 26.955C96.1331 26.841 95.9111 26.682 95.7311 26.478C95.5571 26.268 95.4251 26.016 95.3351 25.722C95.2511 25.428 95.2091 25.104 95.2091 24.75ZM96.4151 24.75C96.4151 24.948 96.4331 25.131 96.4691 25.299C96.5051 25.467 96.5591 25.614 96.6311 25.74C96.7031 25.866 96.7961 25.965 96.9101 26.037C97.0301 26.103 97.1711 26.136 97.3331 26.136C97.6391 26.136 97.8671 26.025 98.0171 25.803C98.1671 25.581 98.2421 25.23 98.2421 24.75C98.2421 24.336 98.1731 24.003 98.0351 23.751C97.8971 23.493 97.6631 23.364 97.3331 23.364C97.0451 23.364 96.8201 23.472 96.6581 23.688C96.4961 23.904 96.4151 24.258 96.4151 24.75ZM102.743 23.598C102.557 23.532 102.389 23.499 102.239 23.499C102.029 23.499 101.852 23.556 101.708 23.67C101.57 23.778 101.477 23.919 101.429 24.093V27H100.259V22.5H101.168L101.303 23.094H101.339C101.441 22.872 101.579 22.701 101.753 22.581C101.927 22.461 102.131 22.401 102.365 22.401C102.521 22.401 102.698 22.434 102.896 22.5L102.743 23.598ZM103.219 22.5H103.84V21.654L105.01 21.321V22.5H106.108V23.49H105.01V25.218C105.01 25.53 105.04 25.755 105.1 25.893C105.166 26.025 105.286 26.091 105.46 26.091C105.58 26.091 105.682 26.079 105.766 26.055C105.856 26.031 105.955 25.995 106.063 25.947L106.27 26.847C106.108 26.925 105.919 26.991 105.703 27.045C105.487 27.099 105.268 27.126 105.046 27.126C104.632 27.126 104.326 27.021 104.128 26.811C103.936 26.595 103.84 26.244 103.84 25.758V23.49H103.219V22.5ZM107.95 22.5V25.056C107.95 25.422 107.992 25.686 108.076 25.848C108.166 26.01 108.337 26.091 108.589 26.091C108.811 26.091 108.994 26.025 109.138 25.893C109.288 25.761 109.399 25.599 109.471 25.407V22.5H110.641V25.632C110.641 25.878 110.653 26.121 110.677 26.361C110.701 26.595 110.737 26.808 110.785 27H109.903L109.696 26.334H109.66C109.522 26.562 109.33 26.751 109.084 26.901C108.838 27.051 108.547 27.126 108.211 27.126C107.983 27.126 107.779 27.096 107.599 27.036C107.419 26.976 107.269 26.877 107.149 26.739C107.029 26.601 106.936 26.415 106.87 26.181C106.81 25.947 106.78 25.653 106.78 25.299V22.5H107.95ZM114.421 27V24.444C114.421 24.078 114.367 23.814 114.259 23.652C114.157 23.49 113.98 23.409 113.728 23.409C113.506 23.409 113.317 23.475 113.161 23.607C113.011 23.733 112.903 23.892 112.837 24.084V27H111.667V22.5H112.594L112.729 23.094H112.765C112.903 22.902 113.086 22.734 113.314 22.59C113.542 22.446 113.836 22.374 114.196 22.374C114.418 22.374 114.616 22.404 114.79 22.464C114.964 22.524 115.111 22.623 115.231 22.761C115.351 22.899 115.441 23.088 115.501 23.328C115.561 23.562 115.591 23.853 115.591 24.201V27H114.421ZM116.671 22.5H117.841V27H116.671V22.5ZM116.5 21.231C116.5 21.057 116.563 20.91 116.689 20.79C116.821 20.664 117.001 20.601 117.229 20.601C117.457 20.601 117.64 20.664 117.778 20.79C117.922 20.91 117.994 21.057 117.994 21.231C117.994 21.405 117.922 21.552 117.778 21.672C117.64 21.786 117.457 21.843 117.229 21.843C117.001 21.843 116.821 21.786 116.689 21.672C116.563 21.552 116.5 21.405 116.5 21.231ZM118.521 22.5H119.142V21.654L120.312 21.321V22.5H121.41V23.49H120.312V25.218C120.312 25.53 120.342 25.755 120.402 25.893C120.468 26.025 120.588 26.091 120.762 26.091C120.882 26.091 120.984 26.079 121.068 26.055C121.158 26.031 121.257 25.995 121.365 25.947L121.572 26.847C121.41 26.925 121.221 26.991 121.005 27.045C120.789 27.099 120.57 27.126 120.348 27.126C119.934 27.126 119.628 27.021 119.43 26.811C119.238 26.595 119.142 26.244 119.142 25.758V23.49H118.521V22.5ZM123.553 25.029L123.715 25.731H123.769L123.886 25.02L124.57 22.5H125.776L124.408 26.559C124.294 26.895 124.183 27.201 124.075 27.477C123.973 27.759 123.859 28.002 123.733 28.206C123.607 28.41 123.466 28.566 123.31 28.674C123.16 28.788 122.98 28.845 122.77 28.845C122.458 28.845 122.209 28.794 122.023 28.692L122.239 27.756C122.329 27.792 122.419 27.81 122.509 27.81C122.647 27.81 122.779 27.75 122.905 27.63C123.037 27.516 123.136 27.306 123.202 27L121.321 22.5H122.725L123.553 25.029Z" fill="#ED7D31"/>
<path d="M64.3242 11.8857V12.5205C63.2305 13.738 62.2246 14.7406 61.3066 15.5283C60.3952 16.3226 59.5033 16.9313 58.6309 17.3545C57.7585 17.7842 56.9154 17.999 56.1016 17.999C55.3984 17.999 54.793 17.859 54.2852 17.5791C53.7839 17.2992 53.403 16.889 53.1426 16.3486C52.8887 15.8148 52.7617 15.18 52.7617 14.4443C52.7617 13.8649 52.8529 13.2529 53.0352 12.6084C53.224 11.9574 53.4941 11.3031 53.8457 10.6455C54.1973 9.98145 54.627 9.29785 55.1348 8.59473C55.6491 7.8916 56.2513 7.15267 56.9414 6.37793C57.6576 5.57715 58.3639 4.88704 59.0605 4.30762C59.7572 3.72168 60.3887 3.2627 60.9551 2.93066C61.5215 2.59863 62.0456 2.35124 62.5273 2.18848C63.0156 2.02572 63.4193 1.94434 63.7383 1.94434C64.0638 1.94434 64.3405 2.02246 64.5684 2.17871C64.7962 2.33496 64.972 2.56283 65.0957 2.8623C65.2194 3.16178 65.2812 3.50684 65.2812 3.89746C65.2812 4.63314 65.0306 5.45345 64.5293 6.3584C64.028 7.25684 63.403 8.12598 62.6543 8.96582C61.9056 9.80566 61.1895 10.4925 60.5059 11.0264C59.8288 11.5537 59.3405 11.8174 59.041 11.8174C58.8392 11.8174 58.6504 11.7393 58.4746 11.583C58.3053 11.4202 58.2207 11.238 58.2207 11.0361C58.2207 10.665 58.416 10.2158 58.8066 9.68848C59.2038 9.16113 59.6335 8.67936 60.0957 8.24316C60.5645 7.80046 60.8444 7.5791 60.9355 7.5791C60.9811 7.5791 61.0039 7.59863 61.0039 7.6377C61.0039 7.69629 60.9681 7.7972 60.8965 7.94043C60.8314 8.08366 60.7988 8.17155 60.7988 8.2041C60.7988 8.25618 60.8184 8.28223 60.8574 8.28223C60.9681 8.28223 61.2871 7.986 61.8145 7.39355C62.3418 6.80111 62.8236 6.15007 63.2598 5.44043C63.7025 4.72428 63.9238 4.13835 63.9238 3.68262C63.9238 3.49382 63.8815 3.35059 63.7969 3.25293C63.7188 3.14876 63.5983 3.09668 63.4355 3.09668C62.9798 3.09668 62.2865 3.46777 61.3555 4.20996C60.431 4.94564 59.4805 5.88639 58.5039 7.03223C57.5339 8.17155 56.7233 9.34993 56.0723 10.5674C55.4212 11.7848 55.0957 12.8558 55.0957 13.7803C55.0957 14.3141 55.1738 14.7601 55.3301 15.1182C55.4928 15.4762 55.7272 15.7529 56.0332 15.9482C56.3457 16.1436 56.7201 16.2412 57.1562 16.2412C58.1003 16.2412 59.1712 15.8734 60.3691 15.1377C61.5671 14.402 62.8854 13.318 64.3242 11.8857ZM85.668 14.1025L81.9863 12.3057C81.0488 13.5882 80.5247 14.4346 80.4141 14.8447C80.3359 15.1377 80.1602 15.3818 79.8867 15.5771C79.6198 15.779 79.4277 15.8799 79.3105 15.8799C78.9785 15.8799 78.8125 15.7529 78.8125 15.499C78.8125 15.3558 79.0078 14.9456 79.3984 14.2686C79.7956 13.585 80.3392 12.7809 81.0293 11.8564C80.6452 11.7002 80.4076 11.596 80.3164 11.5439C80.2253 11.4919 80.1895 11.3942 80.209 11.251C80.2285 11.1012 80.3424 10.8701 80.5508 10.5576C80.7331 10.2842 80.8698 10.1019 80.9609 10.0107C81.0521 9.91309 81.1595 9.83822 81.2832 9.78613C81.4069 9.72754 81.5371 9.68848 81.6738 9.66895C81.8105 9.64941 82.1947 9.60059 82.8262 9.52246C83.3405 8.82585 83.8971 8.07389 84.4961 7.2666C85.1016 6.45931 85.5736 5.83105 85.9121 5.38184C84.89 5.51855 84.1771 5.63249 83.7734 5.72363C83.3438 5.80827 82.9824 5.87988 82.6895 5.93848C82.403 5.99056 82.2012 6.03939 82.084 6.08496C81.9668 6.12402 81.9082 6.18262 81.9082 6.26074C81.9082 6.33236 81.9798 6.38118 82.123 6.40723C82.2663 6.43327 82.4453 6.44629 82.6602 6.44629C82.8815 6.44629 83.0508 6.45605 83.168 6.47559C83.2917 6.48861 83.3535 6.52441 83.3535 6.58301C83.3535 6.64811 83.2721 6.68717 83.1094 6.7002C82.9531 6.70671 82.5072 6.72624 81.7715 6.75879C81.3548 6.77181 81.0033 6.78483 80.7168 6.79785C80.4368 6.81087 80.2415 6.81738 80.1309 6.81738C79.9811 6.81738 79.8639 6.77181 79.7793 6.68066C79.6947 6.58952 79.6523 6.46908 79.6523 6.31934C79.6523 6.20866 79.7142 6.00358 79.8379 5.7041C79.9616 5.40462 80.1374 5.10189 80.3652 4.7959C80.5931 4.48991 80.8535 4.25228 81.1465 4.08301C81.4785 3.88118 81.9928 3.67936 82.6895 3.47754C83.3926 3.26921 84.1706 3.10319 85.0234 2.97949C85.8828 2.84928 86.7324 2.78418 87.5723 2.78418C88.0801 2.78418 88.5749 2.81348 89.0566 2.87207C89.5449 2.93066 89.9844 3.00228 90.375 3.08691C90.7721 3.17155 91.0846 3.25618 91.3125 3.34082C91.9049 3.53613 92.3574 3.83236 92.6699 4.22949C92.9889 4.62663 93.1484 5.06283 93.1484 5.53809C93.1484 6.00033 93.0671 6.4528 92.9043 6.89551C92.748 7.33171 92.5039 7.73861 92.1719 8.11621C91.8464 8.4873 91.4525 8.79004 90.9902 9.02441C90.6126 9.21973 90.0397 9.41829 89.2715 9.62012C88.5033 9.82194 87.5755 10.001 86.4883 10.1572C85.401 10.3135 84.1868 10.4274 82.8457 10.499C83.8483 10.8506 84.7826 11.2054 85.6484 11.5635C86.5208 11.915 87.2533 12.2308 87.8457 12.5107C88.4447 12.7842 88.9134 13.0088 89.252 13.1846C89.7272 13.432 90.0365 13.611 90.1797 13.7217C90.3229 13.8324 90.4173 13.9756 90.4629 14.1514C90.5085 14.3271 90.5312 14.6169 90.5312 15.0205C90.5312 15.4762 90.502 15.8115 90.4434 16.0264C90.3913 16.2477 90.2741 16.3584 90.0918 16.3584C90.0332 16.3584 89.877 16.2933 89.623 16.1631C89.3757 16.0394 89.0306 15.8538 88.5879 15.6064C88.1452 15.3656 87.7415 15.1507 87.377 14.9619C87.0189 14.7666 86.4492 14.4801 85.668 14.1025ZM86.5273 5.28418C86.5339 5.32975 86.5371 5.37207 86.5371 5.41113C86.5436 5.4502 86.5469 5.50553 86.5469 5.57715C86.5469 5.75944 86.4883 5.97103 86.3711 6.21191C86.2604 6.44629 86.1139 6.69043 85.9316 6.94434C85.7559 7.19173 85.4889 7.5498 85.1309 8.01855C84.7793 8.48079 84.4538 8.90723 84.1543 9.29785C85.5215 9.03743 86.6868 8.78678 87.6504 8.5459C88.6204 8.30501 89.418 8.06413 90.043 7.82324C90.668 7.57585 91.1367 7.31868 91.4492 7.05176C91.7682 6.77832 91.9277 6.49512 91.9277 6.20215C91.9277 5.87663 91.5957 5.62272 90.9316 5.44043C90.2741 5.25163 89.4668 5.15723 88.5098 5.15723C88.3145 5.15723 88.1061 5.16374 87.8848 5.17676C87.6699 5.18327 87.4095 5.2028 87.1035 5.23535C86.804 5.26139 86.612 5.27767 86.5273 5.28418ZM122.1 11.8857V12.5596C121.481 13.139 120.954 13.6077 120.518 13.9658C120.088 14.3174 119.658 14.6364 119.229 14.9229C118.799 15.2028 118.441 15.4014 118.154 15.5186C117.874 15.6423 117.633 15.7041 117.432 15.7041C116.95 15.7041 116.556 15.5251 116.25 15.167C115.944 14.8089 115.791 14.3467 115.791 13.7803C115.791 13.1292 115.921 12.4847 116.182 11.8467C116.449 11.2087 116.826 10.5511 117.314 9.87402C117.803 9.19043 118.415 8.42546 119.15 7.5791C119.697 6.9541 119.971 6.60254 119.971 6.52441C119.971 6.47884 119.954 6.43978 119.922 6.40723C119.889 6.37467 119.854 6.3584 119.814 6.3584C119.691 6.3584 119.31 6.63184 118.672 7.17871C118.034 7.72559 117.214 8.52962 116.211 9.59082C115.215 10.652 114.137 11.915 112.979 13.3799C112.913 13.458 112.705 13.7249 112.354 14.1807C112.008 14.6299 111.764 14.9229 111.621 15.0596C111.478 15.1963 111.354 15.2646 111.25 15.2646C111.068 15.2646 110.908 15.0824 110.771 14.7178C110.641 14.3467 110.576 13.9528 110.576 13.5361C110.576 13.2822 110.658 13.0088 110.82 12.7158C110.99 12.4229 111.351 11.8988 111.904 11.1436C112.464 10.3818 112.926 9.74056 113.291 9.21973C113.656 8.69889 114.056 8.06738 114.492 7.3252C114.798 6.81087 115.023 6.40072 115.166 6.09473C115.316 5.78874 115.391 5.51855 115.391 5.28418C115.391 5.08236 115.332 4.98145 115.215 4.98145C114.967 4.98145 114.502 5.31348 113.818 5.97754C113.135 6.63509 112.288 7.61491 111.279 8.91699C110.277 10.2191 109.229 11.7262 108.135 13.4385C107.777 14.0244 107.523 14.4183 107.373 14.6201C107.223 14.8219 107.057 14.9229 106.875 14.9229C106.647 14.9229 106.432 14.682 106.23 14.2002C106.035 13.7119 105.938 13.318 105.938 13.0186C105.938 12.9209 105.977 12.8135 106.055 12.6963C106.914 11.5505 107.62 10.5771 108.174 9.77637C108.727 8.97559 109.219 8.21712 109.648 7.50098C110.078 6.77832 110.391 6.18587 110.586 5.72363C110.781 5.25488 110.879 4.88704 110.879 4.62012C110.879 4.34017 110.752 4.2002 110.498 4.2002C110.29 4.2002 109.935 4.33366 109.434 4.60059C108.932 4.86751 108.298 5.2321 107.529 5.69434C106.768 6.15658 106.156 6.51139 105.693 6.75879C105.231 6.99967 104.886 7.12012 104.658 7.12012C104.443 7.12012 104.336 6.99967 104.336 6.75879C104.336 6.62207 104.382 6.30957 104.473 5.82129C104.564 5.3265 104.658 4.97819 104.756 4.77637C104.893 4.51595 105.241 4.1709 105.801 3.74121C106.367 3.31152 106.68 3.09668 106.738 3.09668C106.79 3.09668 106.816 3.11947 106.816 3.16504C106.816 3.19108 106.79 3.23014 106.738 3.28223C106.471 3.49707 106.273 3.67285 106.143 3.80957C106.012 3.94629 105.931 4.09603 105.898 4.25879C107.09 3.54264 108.154 2.99902 109.092 2.62793C110.036 2.25033 110.69 2.06152 111.055 2.06152C111.237 2.06152 111.41 2.18522 111.572 2.43262C111.735 2.6735 111.872 2.95671 111.982 3.28223C112.1 3.60124 112.158 3.80632 112.158 3.89746C112.158 4.22949 112.074 4.62337 111.904 5.0791C111.735 5.52832 111.504 6.05241 111.211 6.65137C110.924 7.25033 110.566 7.99902 110.137 8.89746C110.475 8.46126 110.798 8.05762 111.104 7.68652C111.41 7.31543 111.712 6.9541 112.012 6.60254C112.318 6.25098 112.627 5.89616 112.939 5.53809C113.363 5.0498 113.838 4.58431 114.365 4.1416C114.893 3.69238 115.384 3.3278 115.84 3.04785C116.302 2.76139 116.615 2.61816 116.777 2.61816C117.005 2.61816 117.207 2.74512 117.383 2.99902C117.565 3.24642 117.656 3.51335 117.656 3.7998C117.656 3.98861 117.533 4.34993 117.285 4.88379C117.038 5.41764 116.676 6.10124 116.201 6.93457C115.726 7.7679 115.098 8.84212 114.316 10.1572C115.059 9.36947 115.83 8.55892 116.631 7.72559C117.432 6.89225 118.027 6.28353 118.418 5.89941C118.809 5.5153 119.134 5.22233 119.395 5.02051C119.753 4.74707 120.111 4.4541 120.469 4.1416C120.833 3.82259 121.12 3.57194 121.328 3.38965C121.536 3.20736 121.722 3.06738 121.885 2.96973C122.048 2.87207 122.197 2.82324 122.334 2.82324C122.503 2.82324 122.715 3.01855 122.969 3.40918C123.229 3.7998 123.359 4.05046 123.359 4.16113C123.359 4.29785 123.281 4.46061 123.125 4.64941C122.975 4.83822 122.66 5.18978 122.178 5.7041C121.292 6.65462 120.524 7.61491 119.873 8.58496C119.222 9.5485 118.727 10.4307 118.389 11.2314C118.057 12.0257 117.891 12.654 117.891 13.1162C117.891 13.4027 117.943 13.611 118.047 13.7412C118.158 13.8714 118.327 13.9365 118.555 13.9365C118.763 13.9365 118.955 13.8975 119.131 13.8193C119.313 13.7412 119.512 13.6305 119.727 13.4873C119.948 13.3441 120.156 13.2074 120.352 13.0771C120.625 12.9144 120.892 12.7419 121.152 12.5596C121.419 12.3708 121.624 12.2243 121.768 12.1201C121.917 12.0094 122.028 11.9313 122.1 11.8857Z" fill="#477AAA"/>
<path d="M12.5749 14.1436C13.5361 12.4717 15.9483 12.4717 16.9095 14.1436L22.3439 23.5957C23.3021 25.2624 22.0991 27.3418 20.1766 27.3418H9.30787C7.38539 27.3418 6.18232 25.2624 7.14055 23.5957L12.5749 14.1436Z" fill="#477AAA" stroke="white" stroke-width="3"/>
<path d="M16.6327 15.9579C15.6874 17.6378 13.2753 17.6581 12.2982 15.9943L6.77429 6.5883C5.80028 4.92976 6.98355 2.84034 8.90596 2.82419L19.7742 2.7329C21.6966 2.71675 22.9194 4.78595 21.9771 6.46059L16.6327 15.9579Z" fill="white" stroke="#ED7D31" stroke-width="3"/>
</svg>
